<svg width="24" height="24" viewBox="0 0 24 24" fill="none" xmlns="http://www.w3.org/2000/svg">
<path
		d="M10 12H21M21 12L17.5 8M21 12L17.5 16"
		stroke="#E30502"
		stroke-width="1.6"
		stroke-linecap="round"
		stroke-linejoin="round"
	/>
<path
		fill-rule="evenodd"
		clip-rule="evenodd"
		d="M6 3.6H14C14.7732 3.6 15.4 4.2268 15.4 5V5.2C15.4 5.64183 15.7582 6 16.2 6C16.6418 6 17 5.64183 17 5.2V5C17 3.34315 15.6569 2 14 2H6C4.34315 2 3 3.34315 3 5V19C3 20.6569 4.34315 22 6 22H14C15.6569 22 17 20.6569 17 19V18.8C17 18.3582 16.6418 18 16.2 18C15.7582 18 15.4 18.3582 15.4 18.8V19C15.4 19.7732 14.7732 20.4 14 20.4H6C5.2268 20.4 4.6 19.7732 4.6 19V5C4.6 4.2268 5.2268 3.6 6 3.6Z"
		fill="#E30502"
	/>
</svg>
