<svg width="24" height="24" viewBox="0 0 24 24" fill="none" xmlns="http://www.w3.org/2000/svg">
<rect x="3.8" y="3.8" width="16.4" height="16.4" rx="8.2" stroke="#252525" stroke-width="1.6" />
<path
		d="M10.546 13.204C10.546 12.948 10.57 12.708 10.618 12.484C10.674 12.252 10.774 12.04 10.918 11.848C11.062 11.656 11.266 11.484 11.53 11.332C11.642 11.26 11.786 11.176 11.962 11.08C12.146 10.984 12.322 10.876 12.49 10.756C12.658 10.628 12.798 10.48 12.91 10.312C13.03 10.136 13.09 9.936 13.09 9.712C13.09 9.488 13.034 9.3 12.922 9.148C12.818 8.996 12.678 8.88 12.502 8.8C12.334 8.72 12.15 8.68 11.95 8.68C11.718 8.68 11.51 8.732 11.326 8.836C11.142 8.932 10.986 9.052 10.858 9.196C10.73 9.34 10.622 9.488 10.534 9.64L9.49003 8.92C9.63403 8.592 9.83003 8.312 10.078 8.08C10.334 7.848 10.626 7.672 10.954 7.552C11.29 7.432 11.638 7.372 11.998 7.372C12.302 7.372 12.602 7.42 12.898 7.516C13.194 7.604 13.462 7.744 13.702 7.936C13.942 8.128 14.134 8.372 14.278 8.668C14.422 8.964 14.494 9.32 14.494 9.736C14.494 9.992 14.462 10.22 14.398 10.42C14.342 10.62 14.258 10.8 14.146 10.96C14.042 11.112 13.91 11.252 13.75 11.38C13.59 11.508 13.418 11.632 13.234 11.752C13.026 11.88 12.814 12.004 12.598 12.124C12.39 12.244 12.214 12.388 12.07 12.556C11.934 12.716 11.866 12.932 11.866 13.204H10.546ZM10.57 16V14.344H11.902V16H10.57Z"
		fill="#252525"
	/>
</svg>
