<svg width="24" height="24" viewBox="0 0 24 24" fill="none" xmlns="http://www.w3.org/2000/svg">
<mask id="path-2-inside-1" fill="white">
<path
			fill-rule="evenodd"
			clip-rule="evenodd"
			d="M12 3.14282C9.86976 3.14282 8.14286 4.86972 8.14286 6.99997C8.14286 9.13021 9.86976 10.8571 12 10.8571C14.1302 10.8571 15.8571 9.13021 15.8571 6.99997C15.8571 4.86972 14.1302 3.14282 12 3.14282ZM11.0578 12.1428C8.13213 12.1428 5.40001 13.6467 3.77713 16.1505L3.31807 16.8588C2.48735 18.1404 3.38061 19.8571 4.87822 19.8571H19.1218C20.6194 19.8571 21.5127 18.1404 20.6819 16.8588L20.2229 16.1505C18.6 13.6467 15.8679 12.1428 12.9422 12.1428H11.0578Z"
		/>
</mask>
<path
		d="M3.77713 16.1505L2.4345 15.2803H2.4345L3.77713 16.1505ZM3.31807 16.8588L4.6607 17.729H4.6607L3.31807 16.8588ZM20.6819 16.8588L22.0246 15.9885L20.6819 16.8588ZM20.2229 16.1505L18.8802 17.0208L18.8802 17.0208L20.2229 16.1505ZM9.74286 6.99997C9.74286 5.75338 10.7534 4.74282 12 4.74282V1.54282C8.9861 1.54282 6.54286 3.98607 6.54286 6.99997H9.74286ZM12 9.25711C10.7534 9.25711 9.74286 8.24655 9.74286 6.99997H6.54286C6.54286 10.0139 8.9861 12.4571 12 12.4571V9.25711ZM14.2571 6.99997C14.2571 8.24655 13.2466 9.25711 12 9.25711V12.4571C15.0139 12.4571 17.4571 10.0139 17.4571 6.99997H14.2571ZM12 4.74282C13.2466 4.74282 14.2571 5.75338 14.2571 6.99997H17.4571C17.4571 3.98607 15.0139 1.54282 12 1.54282V4.74282ZM5.11976 17.0208C6.45477 14.9611 8.68732 13.7428 11.0578 13.7428V10.5428C7.57694 10.5428 4.34525 12.3323 2.4345 15.2803L5.11976 17.0208ZM4.6607 17.729L5.11976 17.0208L2.4345 15.2803L1.97544 15.9885L4.6607 17.729ZM4.87822 18.2571C4.81847 18.2571 4.78114 18.2423 4.75134 18.2232C4.7161 18.2005 4.67575 18.1603 4.64437 18.1C4.58122 17.9786 4.58412 17.8472 4.6607 17.729L1.97544 15.9885C0.49885 18.2666 2.03171 21.4571 4.87822 21.4571V18.2571ZM19.1218 18.2571H4.87822V21.4571H19.1218V18.2571ZM19.3393 17.729C19.4159 17.8472 19.4188 17.9786 19.3556 18.1C19.3243 18.1603 19.2839 18.2005 19.2487 18.2232C19.2189 18.2423 19.1815 18.2571 19.1218 18.2571V21.4571C21.9683 21.4571 23.5012 18.2666 22.0246 15.9885L19.3393 17.729ZM18.8802 17.0208L19.3393 17.729L22.0246 15.9885L21.5655 15.2803L18.8802 17.0208ZM12.9422 13.7428C15.3127 13.7428 17.5452 14.9611 18.8802 17.0208L21.5655 15.2803C19.6547 12.3323 16.4231 10.5428 12.9422 10.5428V13.7428ZM11.0578 13.7428H12.9422V10.5428H11.0578V13.7428Z"
		fill="#252525"
		mask="url(#path-2-inside-1)"
	/>
</svg>
