<svg width="27" height="27" viewBox="0 0 27 27" fill="none" xmlns="http://www.w3.org/2000/svg">
<mask id="path-1-inside-1" fill="white">
<path
			d="M25.1667 13.5C25.9721 13.5 26.6334 14.1549 26.5441 14.9554C26.3719 16.4985 25.9268 18.0028 25.2257 19.3968C24.3057 21.2264 22.9702 22.8152 21.3263 24.0364C19.6823 25.2575 17.7754 26.077 15.7581 26.4293C13.7408 26.7816 11.669 26.657 9.70844 26.0654C7.74789 25.4738 5.95297 24.4317 4.46722 23.0223C2.98148 21.613 1.84614 19.8755 1.15199 17.9489C0.457848 16.0222 0.224163 13.9599 0.469625 11.9268C0.65666 10.3776 1.11793 8.87821 1.82805 7.4974C2.19639 6.78116 3.10956 6.60133 3.78055 7.04683L6.27116 8.70046C6.94215 9.14595 7.10902 10.0483 6.80722 10.795C6.56967 11.3827 6.40979 12.0012 6.33329 12.6347C6.19829 13.7529 6.32682 14.8872 6.7086 15.9469C7.09037 17.0065 7.71481 17.9621 8.53197 18.7373C9.34913 19.5124 10.3363 20.0856 11.4146 20.411C12.4929 20.7364 13.6324 20.8049 14.742 20.6111C15.8515 20.4173 16.9003 19.9666 17.8045 19.295C18.7086 18.6234 19.4431 17.7495 19.9492 16.7433C20.2359 16.1731 20.4447 15.5695 20.5719 14.9484C20.7335 14.1594 21.3717 13.5 22.1771 13.5H25.1667Z"
		/>
</mask>
<path
		d="M25.1667 13.5C25.9721 13.5 26.6334 14.1549 26.5441 14.9554C26.3719 16.4985 25.9268 18.0028 25.2257 19.3968C24.3057 21.2264 22.9702 22.8152 21.3263 24.0364C19.6823 25.2575 17.7754 26.077 15.7581 26.4293C13.7408 26.7816 11.669 26.657 9.70844 26.0654C7.74789 25.4738 5.95297 24.4317 4.46722 23.0223C2.98148 21.613 1.84614 19.8755 1.15199 17.9489C0.457848 16.0222 0.224163 13.9599 0.469625 11.9268C0.65666 10.3776 1.11793 8.87821 1.82805 7.4974C2.19639 6.78116 3.10956 6.60133 3.78055 7.04683L6.27116 8.70046C6.94215 9.14595 7.10902 10.0483 6.80722 10.795C6.56967 11.3827 6.40979 12.0012 6.33329 12.6347C6.19829 13.7529 6.32682 14.8872 6.7086 15.9469C7.09037 17.0065 7.71481 17.9621 8.53197 18.7373C9.34913 19.5124 10.3363 20.0856 11.4146 20.411C12.4929 20.7364 13.6324 20.8049 14.742 20.6111C15.8515 20.4173 16.9003 19.9666 17.8045 19.295C18.7086 18.6234 19.4431 17.7495 19.9492 16.7433C20.2359 16.1731 20.4447 15.5695 20.5719 14.9484C20.7335 14.1594 21.3717 13.5 22.1771 13.5H25.1667Z"
		stroke="#252525"
		stroke-width="2.91667"
		stroke-linecap="round"
		stroke-linejoin="round"
		mask="url(#path-1-inside-1)"
	/>
<mask id="path-2-inside-2" fill="white">
<path
			d="M22.4694 6.03931C23.0886 5.52426 24.0158 5.60487 24.459 6.27736C25.3397 7.61365 25.9686 9.09999 26.3146 10.6625C26.4887 11.4489 25.901 12.1706 25.1002 12.2564L22.1276 12.5751C21.3268 12.6609 20.6221 12.0733 20.3773 11.306C20.2433 10.8862 20.0713 10.4796 19.8632 10.0912C19.4829 9.3812 19.5518 8.46617 20.171 7.95111L22.4694 6.03931Z"
		/>
</mask>
<path
		d="M22.4694 6.03931C23.0886 5.52426 24.0158 5.60487 24.459 6.27736C25.3397 7.61365 25.9686 9.09999 26.3146 10.6625C26.4887 11.4489 25.901 12.1706 25.1002 12.2564L22.1276 12.5751C21.3268 12.6609 20.6221 12.0733 20.3773 11.306C20.2433 10.8862 20.0713 10.4796 19.8632 10.0912C19.4829 9.3812 19.5518 8.46617 20.171 7.95111L22.4694 6.03931Z"
		stroke="#252525"
		stroke-width="2.91667"
		stroke-linecap="round"
		stroke-linejoin="round"
		mask="url(#path-2-inside-2)"
	/>
<mask id="path-3-inside-3" fill="white">
<path
			d="M4.60626 5.94933C3.99228 5.42807 3.91202 4.50084 4.49815 3.94844C5.44827 3.053 6.52871 2.30244 7.70501 1.72359C9.31851 0.929617 11.078 0.475673 12.8742 0.389929C14.6704 0.304184 16.4651 0.588468 18.1469 1.22514C19.373 1.6893 20.52 2.33354 21.5511 3.1344C22.1872 3.62845 22.1956 4.55911 21.6341 5.13649L19.5497 7.27964C18.9882 7.85702 18.0706 7.85473 17.3922 7.42046C16.9723 7.15161 16.5246 6.92629 16.0558 6.74883C15.1308 6.39866 14.1437 6.2423 13.1558 6.28946C12.1679 6.33662 11.2002 6.58629 10.3128 7.02298C9.86302 7.24429 9.43876 7.51123 9.04635 7.81886C8.41249 8.31577 7.49927 8.40546 6.88528 7.88419L4.60626 5.94933Z"
		/>
</mask>
<path
		d="M4.60626 5.94933C3.99228 5.42807 3.91202 4.50084 4.49815 3.94844C5.44827 3.053 6.52871 2.30244 7.70501 1.72359C9.31851 0.929617 11.078 0.475673 12.8742 0.389929C14.6704 0.304184 16.4651 0.588468 18.1469 1.22514C19.373 1.6893 20.52 2.33354 21.5511 3.1344C22.1872 3.62845 22.1956 4.55911 21.6341 5.13649L19.5497 7.27964C18.9882 7.85702 18.0706 7.85473 17.3922 7.42046C16.9723 7.15161 16.5246 6.92629 16.0558 6.74883C15.1308 6.39866 14.1437 6.2423 13.1558 6.28946C12.1679 6.33662 11.2002 6.58629 10.3128 7.02298C9.86302 7.24429 9.43876 7.51123 9.04635 7.81886C8.41249 8.31577 7.49927 8.40546 6.88528 7.88419L4.60626 5.94933Z"
		stroke="#252525"
		stroke-width="2.91667"
		stroke-linecap="round"
		stroke-linejoin="round"
		mask="url(#path-3-inside-3)"
	/>
</svg>
