<svg width="33" height="13" viewBox="0 0 33 13" fill="none" xmlns="http://www.w3.org/2000/svg">
<path
		d="M2.196 12H0.207V0.660999H2.196V12ZM14.5824 12H12.6614L6.74541 3.908V12H4.75641V0.660999H6.79641L12.5934 8.532V0.660999H14.5824V12ZM21.1878 12H19.1988V3.245L17.3458 5.166L16.1898 3.959L19.4538 0.660999H21.1878V12ZM29.8188 11.694C29.2181 12.034 28.5381 12.204 27.7788 12.204C27.0194 12.204 26.3394 12.034 25.7388 11.694C25.1381 11.354 24.6621 10.9007 24.3108 10.334C23.9594 9.76733 23.6931 9.144 23.5118 8.464C23.3304 7.784 23.2398 7.07567 23.2398 6.339C23.2398 5.60233 23.3304 4.894 23.5118 4.214C23.6931 3.534 23.9594 2.91633 24.3108 2.361C24.6621 1.79433 25.1381 1.341 25.7388 1.001C26.3394 0.660999 27.0194 0.490999 27.7788 0.490999C28.5381 0.490999 29.2181 0.660999 29.8188 1.001C30.4194 1.341 30.8954 1.79433 31.2468 2.361C31.5981 2.91633 31.8644 3.534 32.0458 4.214C32.2271 4.894 32.3178 5.60233 32.3178 6.339C32.3178 7.07567 32.2271 7.784 32.0458 8.464C31.8644 9.144 31.5981 9.76733 31.2468 10.334C30.8954 10.9007 30.4194 11.354 29.8188 11.694ZM25.8748 9.28C26.2828 10.0507 26.9174 10.436 27.7788 10.436C28.6401 10.436 29.2748 10.0507 29.6828 9.28C30.0908 8.50933 30.2948 7.529 30.2948 6.339C30.2948 5.57967 30.2154 4.90533 30.0568 4.316C29.9094 3.72667 29.6374 3.23933 29.2408 2.854C28.8554 2.45733 28.3681 2.259 27.7788 2.259C27.1894 2.259 26.6964 2.45733 26.2998 2.854C25.9144 3.23933 25.6424 3.72667 25.4838 4.316C25.3364 4.90533 25.2628 5.57967 25.2628 6.339C25.2628 7.529 25.4668 8.50933 25.8748 9.28Z"
		fill="url(#paint0_linear)"
	/>
<defs>
<linearGradient
			id="paint0_linear"
			x1="34"
			y1="6.85075"
			x2="-1"
			y2="6.85075"
			gradientUnits="userSpaceOnUse"
		>
<stop stop-color="#06C7DF" />
<stop offset="0.755839" stop-color="#DA1EFB" />
<stop offset="0.834455" stop-color="#DC1EDC" />
<stop offset="0.875988" stop-color="#DE1EC6" />
<stop offset="0.928645" stop-color="#DF1EB3" />
<stop offset="0.959795" stop-color="#E01E9F" />
<stop offset="1" stop-color="#E31F8B" />
</linearGradient>
</defs>
</svg>
