<svg width="26" height="26" viewBox="0 0 26 26" fill="none" xmlns="http://www.w3.org/2000/svg">
<path
		fill-rule="evenodd"
		clip-rule="evenodd"
		d="M20.3162 10.638C20.6144 8.64163 19.0944 7.56844 17.016 6.85251L17.6902 4.1482L16.0436 3.73796L15.3872 6.37101C14.955 6.26317 14.5105 6.16143 14.0688 6.06063L14.7299 3.41024L13.0847 3L12.4101 5.70337C12.0519 5.62179 11.7002 5.54115 11.3589 5.45629L11.3608 5.44785L9.09063 4.88101L8.65273 6.63919C8.65273 6.63919 9.87408 6.91909 9.84829 6.93643C10.515 7.10287 10.636 7.54406 10.6153 7.89382L9.84735 10.9746C9.8933 10.9863 9.95284 11.0032 10.0185 11.0295L9.84501 10.9863L8.76807 15.3021C8.68649 15.5046 8.47973 15.8084 8.01369 15.6931C8.0301 15.717 6.8172 15.3944 6.8172 15.3944L6 17.2792L8.14263 17.8132C8.38447 17.8738 8.62338 17.9361 8.85967 17.9978L8.85985 17.9978L8.86033 17.998C9.01318 18.0378 9.16494 18.0774 9.31568 18.1161L8.63445 20.8518L10.2787 21.262L10.9538 18.5559C11.4025 18.6778 11.8385 18.7903 12.2652 18.8962L11.5929 21.5898L13.239 22L13.9202 19.2699C16.7272 19.8011 18.8384 19.5868 19.7259 17.0485C20.4419 15.0043 19.6908 13.8252 18.2139 13.0558C19.2894 12.8069 20.0996 12.0994 20.3158 10.638H20.3162ZM16.5541 15.9117C16.0868 17.7878 13.1495 17.0115 11.8068 16.6567C11.6865 16.6249 11.5791 16.5965 11.4873 16.5737L12.3912 12.95C12.5034 12.9779 12.6404 13.0087 12.7956 13.0435L12.7956 13.0435C14.1847 13.3552 17.0316 13.9941 16.5546 15.9117H16.5541ZM13.0755 11.3633C14.1958 11.6622 16.638 12.3137 17.0635 10.6094C17.4984 8.86576 15.1236 8.34023 13.9638 8.08357C13.8335 8.05472 13.7184 8.02927 13.6245 8.00586L12.8049 11.2925C12.8825 11.3118 12.9735 11.3361 13.0755 11.3633Z"
		fill="#F7931A"
	/>
</svg>
