<svg width="24" height="24" viewBox="0 0 24 24" fill="none" xmlns="http://www.w3.org/2000/svg">
<path
		fill-rule="evenodd"
		clip-rule="evenodd"
		d="M12.02 2C6.21 2 2 6.74612 2 12.015C2 13.6975 2.49 15.4291 3.35 17.0115C3.51 17.2729 3.53 17.6024 3.42 17.9139L2.75 20.1572C2.6 20.698 3.06 21.0976 3.57 20.9374L5.59 20.3375C6.14 20.1572 6.57 20.3866 7.08 20.698C8.54 21.5583 10.36 22 12 22C16.96 22 22 18.1642 22 11.985C22 6.65598 17.7 2 12.02 2Z"
		stroke="#03061D"
		stroke-width="2"
		stroke-linecap="round"
		stroke-linejoin="round"
	/>
<path
		d="M12.0069 14.4889C11.8015 14.4889 11.6289 14.4236 11.4889 14.2929C11.3582 14.1529 11.2929 13.9802 11.2929 13.7749C11.2929 13.4109 11.3862 13.0142 11.5729 12.5849C11.7595 12.1462 12.0489 11.7589 12.4409 11.4229C12.7022 11.1989 12.9402 10.9796 13.1549 10.7649C13.3789 10.5409 13.5562 10.2889 13.6869 10.0089C13.8269 9.71957 13.8969 9.36957 13.8969 8.9589C13.8969 8.66023 13.8269 8.38023 13.6869 8.1189C13.5469 7.85757 13.3462 7.64757 13.0849 7.4889C12.8329 7.3209 12.5202 7.2369 12.1469 7.2369C11.4655 7.2369 10.9569 7.42357 10.6209 7.7969C10.2942 8.1609 10.1309 8.64157 10.1309 9.2389C10.1309 9.44423 10.0655 9.6169 9.93488 9.7569C9.80421 9.88757 9.63155 9.9529 9.41688 9.9529C9.21155 9.9529 9.03888 9.88757 8.89888 9.7569C8.76821 9.6169 8.70288 9.44423 8.70288 9.2389C8.70288 8.58557 8.84288 8.01157 9.12288 7.5169C9.41221 7.02223 9.81355 6.6349 10.3269 6.3549C10.8495 6.06557 11.4562 5.9209 12.1469 5.9209C12.7535 5.9209 13.2902 6.05157 13.7569 6.3129C14.2329 6.5649 14.6062 6.91957 14.8769 7.3769C15.1569 7.8249 15.2969 8.35223 15.2969 8.9589C15.2969 9.48157 15.2129 9.93423 15.0449 10.3169C14.8769 10.6996 14.6482 11.0449 14.3589 11.3529C14.0695 11.6516 13.7382 11.9502 13.3649 12.2489C13.1222 12.4449 12.9542 12.7016 12.8609 13.0189C12.7675 13.3269 12.7209 13.5789 12.7209 13.7749C12.7209 13.9802 12.6555 14.1529 12.5249 14.2929C12.3942 14.4236 12.2215 14.4889 12.0069 14.4889ZM12.0069 18.0789C11.7455 18.0789 11.5169 17.9856 11.3209 17.7989C11.1342 17.6029 11.0409 17.3742 11.0409 17.1129C11.0409 16.8422 11.1342 16.6136 11.3209 16.4269C11.5169 16.2309 11.7455 16.1329 12.0069 16.1329C12.2775 16.1329 12.5062 16.2309 12.6929 16.4269C12.8889 16.6136 12.9869 16.8422 12.9869 17.1129C12.9869 17.3742 12.8889 17.6029 12.6929 17.7989C12.5062 17.9856 12.2775 18.0789 12.0069 18.0789Z"
		fill="#03061D"
	/>
<path
		fill-rule="evenodd"
		clip-rule="evenodd"
		d="M11.2768 14.5054L11.2698 14.4978C11.0833 14.298 10.9931 14.0504 10.9931 13.7751C10.9931 13.3603 11.0992 12.9229 11.2975 12.4666C11.5037 11.9824 11.8221 11.5586 12.2458 11.1953C12.5021 10.9757 12.7344 10.7615 12.9429 10.553C13.1429 10.3531 13.2997 10.1297 13.4152 9.88223L13.417 9.87841L13.417 9.87843C13.5326 9.63952 13.5971 9.33666 13.5971 8.95909C13.5971 8.70947 13.5391 8.47819 13.4226 8.26076C13.3088 8.04824 13.1464 7.87726 12.9294 7.74553L12.9185 7.73893L12.9187 7.73871C12.7263 7.61049 12.475 7.53709 12.1471 7.53709C11.5192 7.53709 11.1051 7.70784 10.8442 7.99766C10.5774 8.29505 10.4311 8.6987 10.4311 9.23909C10.4311 9.51441 10.3409 9.762 10.1544 9.96179L10.1473 9.96935L10.1472 9.96923C9.95116 10.1653 9.6974 10.2531 9.41708 10.2531C9.14176 10.2531 8.89417 10.1629 8.69438 9.97641L8.68682 9.96935L8.67976 9.96179C8.49329 9.762 8.40308 9.51441 8.40308 9.23909C8.40308 8.5418 8.55289 7.91541 8.862 7.36931L8.86409 7.36561L8.86412 7.36563C9.18143 6.82314 9.62279 6.39771 10.1826 6.09217C10.7561 5.77492 11.4139 5.62109 12.1471 5.62109C12.7968 5.62109 13.3841 5.76116 13.9006 6.04961C14.4222 6.32645 14.8349 6.71809 15.1334 7.22118C15.4461 7.72291 15.5971 8.30606 15.5971 8.95909C15.5971 9.5132 15.5081 10.0088 15.3198 10.4377C15.1379 10.852 14.8902 11.2259 14.5777 11.5585L14.5746 11.5619L14.5745 11.5618C14.2754 11.8707 13.9346 12.1776 13.5531 12.4829C13.3611 12.6381 13.226 12.8414 13.1489 13.1037L13.1482 13.1061L13.1482 13.1061C13.0587 13.4015 13.0211 13.6214 13.0211 13.7751C13.0211 14.0504 12.9309 14.298 12.7444 14.4978L12.7373 14.5054L12.7372 14.5052C12.5412 14.7013 12.2874 14.7891 12.0071 14.7891C11.7318 14.7891 11.4842 14.6989 11.2844 14.5124L11.2768 14.5054ZM13.3651 12.2491C13.7384 11.9504 14.0697 11.6518 14.3591 11.3531C14.6484 11.0451 14.8771 10.6998 15.0451 10.3171C15.2131 9.93443 15.2971 9.48176 15.2971 8.95909C15.2971 8.35243 15.1571 7.82509 14.8771 7.37709C14.6064 6.91976 14.2331 6.56509 13.7571 6.31309C13.2904 6.05176 12.7537 5.92109 12.1471 5.92109C11.4564 5.92109 10.8497 6.06576 10.3271 6.35509C9.81374 6.63509 9.41241 7.02243 9.12308 7.51709C8.84308 8.01176 8.70308 8.58576 8.70308 9.23909C8.70308 9.44443 8.76841 9.61709 8.89908 9.75709C9.03908 9.88776 9.21174 9.95309 9.41708 9.95309C9.63174 9.95309 9.80441 9.88776 9.93508 9.75709C10.0657 9.61709 10.1311 9.44443 10.1311 9.23909C10.1311 8.64176 10.2944 8.16109 10.6211 7.79709C10.9571 7.42376 11.4657 7.23709 12.1471 7.23709C12.5204 7.23709 12.8331 7.32109 13.0851 7.48909C13.3464 7.64776 13.5471 7.85776 13.6871 8.11909C13.8271 8.38043 13.8971 8.66043 13.8971 8.95909C13.8971 9.36976 13.8271 9.71976 13.6871 10.0091C13.5564 10.2891 13.3791 10.5411 13.1551 10.7651C12.9404 10.9798 12.7024 11.1991 12.4411 11.4231C12.0491 11.7591 11.7597 12.1464 11.5731 12.5851C11.3864 13.0144 11.2931 13.4111 11.2931 13.7751C11.2931 13.9804 11.3584 14.1531 11.4891 14.2931C11.6291 14.4238 11.8017 14.4891 12.0071 14.4891C12.2217 14.4891 12.3944 14.4238 12.5251 14.2931C12.6557 14.1531 12.7211 13.9804 12.7211 13.7751C12.7211 13.5791 12.7677 13.3271 12.8611 13.0191C12.9544 12.7018 13.1224 12.4451 13.3651 12.2491ZM11.1089 18.0113L11.1038 18.006C10.8661 17.7564 10.7411 17.4545 10.7411 17.1131C10.7411 16.7651 10.8644 16.4595 11.1089 16.215C11.3574 15.9665 11.661 15.8331 12.0071 15.8331C12.3574 15.8331 12.6628 15.9629 12.9053 16.2149C13.1572 16.4574 13.2871 16.7628 13.2871 17.1131C13.2871 17.4592 13.1537 17.7628 12.9052 18.0112C12.6607 18.2557 12.3551 18.3791 12.0071 18.3791C11.6657 18.3791 11.3638 18.254 11.1142 18.0163L11.1089 18.0113ZM12.6931 16.4271C12.5064 16.2311 12.2777 16.1331 12.0071 16.1331C11.7457 16.1331 11.5171 16.2311 11.3211 16.4271C11.1344 16.6138 11.0411 16.8424 11.0411 17.1131C11.0411 17.3744 11.1344 17.6031 11.3211 17.7991C11.5171 17.9858 11.7457 18.0791 12.0071 18.0791C12.2777 18.0791 12.5064 17.9858 12.6931 17.7991C12.8891 17.6031 12.9871 17.3744 12.9871 17.1131C12.9871 16.8424 12.8891 16.6138 12.6931 16.4271Z"
		fill="#03061D"
	/>
</svg>
