<?xml version="1.0" encoding="UTF-8" ?>
<svg
	xmlns="http://www.w3.org/2000/svg"
	xmlns:xlink="http://www.w3.org/1999/xlink"
	width="18pt"
	height="18pt"
	viewBox="0 0 18 18"
	version="1.1"
>
<g id="surface1">
<path
			style="fill: #252525"
			d="M 16.019531 4.171875 L 13.386719 4.171875 L 13.386719 3.902344 C 13.386719 2.691406 12.40625 1.710938 11.199219 1.710938 L 7.011719 1.710938 C 5.804688 1.710938 4.824219 2.691406 4.824219 3.902344 L 4.824219 4.171875 L 2.1875 4.171875 C 0.980469 4.171875 0 5.152344 0 6.363281 L 0 14.308594 C 0 15.519531 0.980469 16.496094 2.1875 16.496094 L 16.023438 16.496094 C 17.230469 16.496094 18.210938 15.519531 18.210938 14.308594 L 18.210938 6.363281 C 18.210938 5.152344 17.230469 4.171875 16.019531 4.171875 Z M 9.105469 14.226562 C 6.824219 14.226562 4.972656 12.371094 4.972656 10.09375 C 4.972656 7.8125 6.824219 5.957031 9.105469 5.957031 C 11.386719 5.957031 13.238281 7.8125 13.238281 10.09375 C 13.238281 12.371094 11.382812 14.226562 9.105469 14.226562 Z M 11.292969 10.09375 C 11.292969 11.300781 10.3125 12.28125 9.105469 12.28125 C 7.898438 12.28125 6.914062 11.300781 6.914062 10.09375 C 6.914062 8.882812 7.898438 7.902344 9.105469 7.902344 C 10.3125 7.902344 11.292969 8.882812 11.292969 10.09375 Z M 11.292969 10.09375 "
		/>
</g>
</svg>
