<svg width="175" height="52" viewBox="0 0 175 52" fill="none" xmlns="http://www.w3.org/2000/svg">
<path
		d="M80.2925 41.1854C78.1351 41.1854 76.1318 40.8618 74.2826 40.2146C72.4643 39.5365 71.0466 38.689 70.0295 37.672C69.5672 37.1788 69.3669 36.6241 69.4285 36.0077C69.521 35.3605 69.8292 34.8365 70.3531 34.4359C70.9695 33.9428 71.5705 33.7424 72.1561 33.8349C72.7725 33.8965 73.2964 34.1585 73.7279 34.6208C74.2518 35.2064 75.084 35.7611 76.2243 36.2851C77.3954 36.7782 78.6899 37.0247 80.1076 37.0247C81.8951 37.0247 83.2512 36.732 84.1758 36.1464C85.1312 35.5608 85.6243 34.8057 85.6551 33.8811C85.686 32.9565 85.2391 32.1552 84.3145 31.4772C83.4207 30.7991 81.7718 30.2444 79.3679 29.8129C76.2551 29.1965 73.9899 28.2719 72.5721 27.0391C71.1853 25.8063 70.4918 24.2962 70.4918 22.5086C70.4918 20.9368 70.9541 19.6424 71.8787 18.6253C72.8033 17.5775 73.9899 16.807 75.4384 16.3139C76.8869 15.7899 78.3971 15.528 79.9689 15.528C82.003 15.528 83.806 15.8516 85.3778 16.4988C86.9496 17.146 88.1978 18.0398 89.1224 19.1801C89.5538 19.6732 89.7542 20.1971 89.7233 20.7519C89.6925 21.2758 89.4306 21.7227 88.9374 22.0926C88.4443 22.4316 87.8588 22.5394 87.1807 22.4162C86.5027 22.2929 85.9325 22.0155 85.4702 21.584C84.6997 20.8444 83.8676 20.3358 82.9738 20.0585C82.08 19.7811 81.0476 19.6424 79.8764 19.6424C78.5204 19.6424 77.3646 19.8735 76.4092 20.3358C75.4846 20.7981 75.0223 21.4762 75.0223 22.3699C75.0223 22.9247 75.161 23.4332 75.4384 23.8955C75.7466 24.327 76.3322 24.7277 77.1951 25.0975C78.0581 25.4365 79.3217 25.7755 80.9859 26.1145C84.4686 26.7926 86.8725 27.7634 88.1978 29.027C89.5538 30.2598 90.2319 31.7854 90.2319 33.6037C90.2319 35.0215 89.8466 36.3005 89.0761 37.4408C88.3365 38.5811 87.2269 39.4903 85.7476 40.1684C84.2991 40.8464 82.4807 41.1854 80.2925 41.1854ZM106.734 41.1854C104.485 41.1854 102.466 40.6307 100.678 39.5211C98.8908 38.3808 97.4731 36.8552 96.4252 34.9444C95.4081 33.0028 94.8996 30.8146 94.8996 28.3798C94.8996 25.945 95.4544 23.7568 96.5639 21.8152C97.7042 19.8735 99.2298 18.348 101.141 17.2384C103.082 16.0981 105.255 15.528 107.659 15.528C110.063 15.528 112.22 16.0981 114.131 17.2384C116.042 18.348 117.552 19.8735 118.662 21.8152C119.802 23.7568 120.372 25.945 120.372 28.3798V38.689C120.372 39.367 120.141 39.9372 119.679 40.3995C119.247 40.831 118.692 41.0467 118.014 41.0467C117.336 41.0467 116.766 40.831 116.304 40.3995C115.872 39.9372 115.657 39.367 115.657 38.689V36.9785C114.578 38.2729 113.268 39.3054 111.727 40.0759C110.217 40.8156 108.553 41.1854 106.734 41.1854ZM107.659 37.0247C109.231 37.0247 110.633 36.6549 111.866 35.9152C113.099 35.1447 114.07 34.1123 114.778 32.8178C115.487 31.4926 115.842 30.0132 115.842 28.3798C115.842 26.7155 115.487 25.2362 114.778 23.9417C114.07 22.6165 113.099 21.584 111.866 20.8444C110.633 20.0739 109.231 19.6886 107.659 19.6886C106.118 19.6886 104.716 20.0739 103.452 20.8444C102.219 21.584 101.233 22.6165 100.493 23.9417C99.7846 25.2362 99.4301 26.7155 99.4301 28.3798C99.4301 30.0132 99.7846 31.4926 100.493 32.8178C101.233 34.1123 102.219 35.1447 103.452 35.9152C104.716 36.6549 106.118 37.0247 107.659 37.0247ZM134.543 40.9543C133.588 40.9543 132.848 40.4457 132.324 39.4287L122.523 18.764C122.277 18.2401 122.246 17.7316 122.431 17.2384C122.647 16.7145 123.047 16.3139 123.633 16.0365C124.157 15.7591 124.681 15.7129 125.205 15.8978C125.759 16.0827 126.175 16.4371 126.453 16.9611L134.497 34.2972L142.448 16.9611C142.726 16.4371 143.142 16.0827 143.696 15.8978C144.282 15.7129 144.868 15.7591 145.453 16.0365C146.008 16.283 146.378 16.6683 146.563 17.1922C146.748 17.7162 146.717 18.2401 146.47 18.764L136.67 39.4287C136.207 40.4457 135.498 40.9543 134.543 40.9543ZM162.296 41.1854C159.738 41.1854 157.457 40.6461 155.454 39.5674C153.481 38.4579 151.925 36.9477 150.784 35.0369C149.675 33.0952 149.12 30.8762 149.12 28.3798C149.12 25.8526 149.644 23.6335 150.692 21.7227C151.771 19.7811 153.25 18.2709 155.13 17.1922C157.01 16.0827 159.167 15.528 161.602 15.528C164.006 15.528 166.071 16.0673 167.797 17.146C169.523 18.1939 170.833 19.6578 171.726 21.5378C172.651 23.387 173.113 25.529 173.113 27.9637C173.113 28.5493 172.913 29.0424 172.512 29.4431C172.112 29.8129 171.603 29.9978 170.987 29.9978H153.419C153.759 32.1244 154.729 33.8657 156.332 35.2218C157.965 36.547 159.953 37.2097 162.296 37.2097C163.251 37.2097 164.222 37.0401 165.208 36.7011C166.225 36.3313 167.042 35.9152 167.658 35.4529C168.121 35.1139 168.614 34.9444 169.138 34.9444C169.692 34.9136 170.17 35.0677 170.571 35.4067C171.095 35.869 171.372 36.3775 171.403 36.9323C171.434 37.487 171.187 37.9647 170.663 38.3654C169.615 39.1975 168.305 39.8756 166.734 40.3995C165.193 40.9234 163.713 41.1854 162.296 41.1854ZM161.602 19.5037C159.321 19.5037 157.488 20.1355 156.101 21.3991C154.714 22.6627 153.836 24.2962 153.466 26.2995H168.86C168.583 24.327 167.828 22.709 166.595 21.4453C165.362 20.1509 163.698 19.5037 161.602 19.5037Z"
		fill="black"
	/>
<path
		d="M6.98068 41C6.30264 41 5.73248 40.7843 5.27018 40.3528C4.8387 39.8905 4.62296 39.3203 4.62296 38.6423V18.0701C4.62296 17.3612 4.8387 16.7911 5.27018 16.3596C5.73248 15.9281 6.30264 15.7124 6.98068 15.7124C7.68953 15.7124 8.2597 15.9281 8.69117 16.3596C9.12265 16.7911 9.33839 17.3612 9.33839 18.0701V38.6423C9.33839 39.3203 9.12265 39.8905 8.69117 40.3528C8.2597 40.7843 7.68953 41 6.98068 41ZM6.98068 11.5979C6.14854 11.5979 5.42428 11.3052 4.80788 10.7196C4.22231 10.1032 3.92952 9.37892 3.92952 8.54679C3.92952 7.71465 4.22231 7.0058 4.80788 6.42022C5.42428 5.80383 6.14854 5.49563 6.98068 5.49563C7.81281 5.49563 8.52167 5.80383 9.10724 6.42022C9.72364 7.0058 10.0318 7.71465 10.0318 8.54679C10.0318 9.37892 9.72364 10.1032 9.10724 10.7196C8.52167 11.3052 7.81281 11.5979 6.98068 11.5979Z"
		fill="black"
	/>
<path
		fill-rule="evenodd"
		clip-rule="evenodd"
		d="M15.0281 40.9227C13.6886 39.937 13.4019 38.0521 14.3876 36.7126L29.7549 15.8306C30.3224 15.0595 31.2227 14.6042 32.1801 14.6042C33.1376 14.6042 34.0379 15.0595 34.6054 15.8306L47.5475 33.4171L60.4897 15.8306C61.4754 14.4912 63.3602 14.2044 64.6997 15.1902C66.0391 16.1759 66.3258 18.0607 65.3401 19.4002L49.9727 40.2822C49.4052 41.0533 48.5049 41.5086 47.5474 41.5086C46.59 41.5086 45.6897 41.0533 45.1222 40.2822L32.1801 22.6957L19.2381 40.2822C18.2524 41.6216 16.3675 41.9084 15.0281 40.9227Z"
		fill="url(#paint0_linear)"
	/>
<defs>
<linearGradient
			id="paint0_linear"
			x1="65.9263"
			y1="28.0564"
			x2="13.8014"
			y2="28.0564"
			gradientUnits="userSpaceOnUse"
		>
<stop stop-color="#06C7DF" />
<stop offset="0.755839" stop-color="#DA1EFB" />
<stop offset="0.834455" stop-color="#DC1EDC" />
<stop offset="0.875988" stop-color="#DE1EC6" />
<stop offset="0.928645" stop-color="#DF1EB3" />
<stop offset="0.959795" stop-color="#E01E9F" />
<stop offset="1" stop-color="#E31F8B" />
</linearGradient>
</defs>
</svg>
