<svg width="175" height="52" viewBox="0 0 175 52" fill="none" xmlns="http://www.w3.org/2000/svg">
<path
		d="M80.2927 41.1849C78.1354 41.1849 76.1321 40.8613 74.2829 40.2141C72.4645 39.5361 71.0468 38.6885 70.0298 37.6715C69.5675 37.1783 69.3671 36.6236 69.4288 36.0072C69.5212 35.36 69.8294 34.836 70.3534 34.4354C70.9698 33.9423 71.5707 33.7419 72.1563 33.8344C72.7727 33.896 73.2967 34.158 73.7281 34.6203C74.2521 35.2059 75.0842 35.7606 76.2245 36.2846C77.3957 36.7777 78.6901 37.0243 80.1078 37.0243C81.8954 37.0243 83.2514 36.7315 84.176 36.1459C85.1314 35.5603 85.6246 34.8052 85.6554 33.8806C85.6862 32.956 85.2393 32.1547 84.3147 31.4767C83.4209 30.7987 81.7721 30.2439 79.3681 29.8124C76.2554 29.196 73.9901 28.2714 72.5724 27.0386C71.1855 25.8059 70.4921 24.2957 70.4921 22.5081C70.4921 20.9363 70.9544 19.6419 71.8789 18.6248C72.8035 17.577 73.9901 16.8065 75.4386 16.3134C76.8872 15.7894 78.3973 15.5275 79.9691 15.5275C82.0032 15.5275 83.8062 15.8511 85.378 16.4983C86.9498 17.1455 88.198 18.0393 89.1226 19.1796C89.5541 19.6727 89.7544 20.1967 89.7236 20.7514C89.6928 21.2753 89.4308 21.7222 88.9377 22.0921C88.4446 22.4311 87.859 22.539 87.181 22.4157C86.5029 22.2924 85.9328 22.015 85.4705 21.5835C84.7 20.8439 83.8678 20.3353 82.9741 20.058C82.0803 19.7806 81.0478 19.6419 79.8767 19.6419C78.5206 19.6419 77.3649 19.873 76.4095 20.3353C75.4849 20.7976 75.0226 21.4757 75.0226 22.3695C75.0226 22.9242 75.1613 23.4327 75.4386 23.895C75.7468 24.3265 76.3324 24.7272 77.1954 25.097C78.0583 25.436 79.3219 25.775 80.9862 26.1141C84.4688 26.7921 86.8728 27.7629 88.198 29.0265C89.5541 30.2593 90.2321 31.7849 90.2321 33.6033C90.2321 35.021 89.8469 36.3 89.0764 37.4403C88.3367 38.5806 87.2272 39.4898 85.7478 40.1679C84.2993 40.8459 82.4809 41.1849 80.2927 41.1849ZM106.735 41.1849C104.485 41.1849 102.466 40.6302 100.679 39.5207C98.891 38.3803 97.4733 36.8547 96.4254 34.9439C95.4084 33.0023 94.8999 30.8141 94.8999 28.3793C94.8999 25.9445 95.4546 23.7563 96.5641 21.8147C97.7045 19.873 99.23 18.3475 101.141 17.238C103.083 16.0976 105.255 15.5275 107.659 15.5275C110.063 15.5275 112.221 16.0976 114.131 17.238C116.042 18.3475 117.552 19.873 118.662 21.8147C119.802 23.7563 120.372 25.9445 120.372 28.3793V38.6885C120.372 39.3666 120.141 39.9367 119.679 40.399C119.247 40.8305 118.693 41.0462 118.015 41.0462C117.337 41.0462 116.766 40.8305 116.304 40.399C115.873 39.9367 115.657 39.3666 115.657 38.6885V36.978C114.578 38.2725 113.268 39.3049 111.727 40.0754C110.217 40.8151 108.553 41.1849 106.735 41.1849ZM107.659 37.0243C109.231 37.0243 110.633 36.6544 111.866 35.9147C113.099 35.1442 114.07 34.1118 114.779 32.8174C115.487 31.4921 115.842 30.0128 115.842 28.3793C115.842 26.715 115.487 25.2357 114.779 23.9413C114.07 22.616 113.099 21.5835 111.866 20.8439C110.633 20.0734 109.231 19.6881 107.659 19.6881C106.118 19.6881 104.716 20.0734 103.452 20.8439C102.22 21.5835 101.233 22.616 100.494 23.9413C99.7848 25.2357 99.4304 26.715 99.4304 28.3793C99.4304 30.0128 99.7848 31.4921 100.494 32.8174C101.233 34.1118 102.22 35.1442 103.452 35.9147C104.716 36.6544 106.118 37.0243 107.659 37.0243ZM134.543 40.9538C133.588 40.9538 132.848 40.4452 132.324 39.4282L122.524 18.7635C122.277 18.2396 122.246 17.7311 122.431 17.238C122.647 16.714 123.047 16.3134 123.633 16.036C124.157 15.7586 124.681 15.7124 125.205 15.8973C125.76 16.0822 126.176 16.4366 126.453 16.9606L134.497 34.2967L142.449 16.9606C142.726 16.4366 143.142 16.0822 143.697 15.8973C144.282 15.7124 144.868 15.7586 145.453 16.036C146.008 16.2825 146.378 16.6678 146.563 17.1917C146.748 17.7157 146.717 18.2396 146.47 18.7635L136.67 39.4282C136.208 40.4452 135.499 40.9538 134.543 40.9538ZM162.296 41.1849C159.738 41.1849 157.457 40.6456 155.454 39.5669C153.481 38.4574 151.925 36.9472 150.785 35.0364C149.675 33.0947 149.12 30.8757 149.12 28.3793C149.12 25.8521 149.644 23.6331 150.692 21.7222C151.771 19.7806 153.25 18.2704 155.13 17.1917C157.01 16.0822 159.168 15.5275 161.602 15.5275C164.006 15.5275 166.071 16.0668 167.797 17.1455C169.523 18.1934 170.833 19.6573 171.727 21.5373C172.651 23.3865 173.114 25.5285 173.114 27.9632C173.114 28.5488 172.913 29.0419 172.513 29.4426C172.112 29.8124 171.603 29.9973 170.987 29.9973H153.42C153.759 32.1239 154.73 33.8652 156.332 35.2213C157.966 36.5465 159.954 37.2092 162.296 37.2092C163.251 37.2092 164.222 37.0397 165.208 36.7006C166.225 36.3308 167.042 35.9147 167.658 35.4524C168.121 35.1134 168.614 34.9439 169.138 34.9439C169.693 34.9131 170.17 35.0672 170.571 35.4062C171.095 35.8685 171.372 36.377 171.403 36.9318C171.434 37.4865 171.187 37.9643 170.663 38.3649C169.616 39.197 168.306 39.8751 166.734 40.399C165.193 40.923 163.714 41.1849 162.296 41.1849ZM161.602 19.5032C159.322 19.5032 157.488 20.135 156.101 21.3986C154.714 22.6622 153.836 24.2957 153.466 26.299H168.86C168.583 24.3265 167.828 22.7085 166.595 21.4449C165.362 20.1504 163.698 19.5032 161.602 19.5032Z"
		fill="#03061D"
	/>
<path
		d="M6.98068 41C6.30264 41 5.73248 40.7843 5.27018 40.3528C4.8387 39.8905 4.62296 39.3203 4.62296 38.6423V18.0701C4.62296 17.3612 4.8387 16.7911 5.27018 16.3596C5.73248 15.9281 6.30264 15.7124 6.98068 15.7124C7.68953 15.7124 8.2597 15.9281 8.69117 16.3596C9.12265 16.7911 9.33839 17.3612 9.33839 18.0701V38.6423C9.33839 39.3203 9.12265 39.8905 8.69117 40.3528C8.2597 40.7843 7.68953 41 6.98068 41ZM6.98068 11.5979C6.14854 11.5979 5.42428 11.3052 4.80788 10.7196C4.22231 10.1032 3.92952 9.37892 3.92952 8.54679C3.92952 7.71465 4.22231 7.0058 4.80788 6.42022C5.42428 5.80383 6.14854 5.49563 6.98068 5.49563C7.81281 5.49563 8.52167 5.80383 9.10724 6.42022C9.72364 7.0058 10.0318 7.71465 10.0318 8.54679C10.0318 9.37892 9.72364 10.1032 9.10724 10.7196C8.52167 11.3052 7.81281 11.5979 6.98068 11.5979Z"
		fill="#03061D"
	/>
<path
		fill-rule="evenodd"
		clip-rule="evenodd"
		d="M15.0281 40.9227C13.6886 39.937 13.4019 38.0521 14.3876 36.7126L29.7549 15.8306C30.3224 15.0595 31.2227 14.6042 32.1801 14.6042C33.1376 14.6042 34.0379 15.0595 34.6054 15.8306L47.5475 33.4171L60.4897 15.8306C61.4754 14.4912 63.3602 14.2044 64.6997 15.1902C66.0391 16.1759 66.3258 18.0607 65.3401 19.4002L49.9727 40.2822C49.4052 41.0533 48.5049 41.5086 47.5474 41.5086C46.59 41.5086 45.6897 41.0533 45.1222 40.2822L32.1801 22.6957L19.2381 40.2822C18.2524 41.6216 16.3675 41.9084 15.0281 40.9227Z"
		fill="url(#paint0_linear)"
	/>
<defs>
<linearGradient
			id="paint0_linear"
			x1="65.9263"
			y1="28.0564"
			x2="13.8014"
			y2="28.0564"
			gradientUnits="userSpaceOnUse"
		>
<stop stop-color="#06C7DF" />
<stop offset="0.755839" stop-color="#DA1EFB" />
<stop offset="0.834455" stop-color="#DC1EDC" />
<stop offset="0.875988" stop-color="#DE1EC6" />
<stop offset="0.928645" stop-color="#DF1EB3" />
<stop offset="0.959795" stop-color="#E01E9F" />
<stop offset="1" stop-color="#E31F8B" />
</linearGradient>
</defs>
</svg>
