<svg width="48" height="48" viewBox="0 0 48 48" fill="none" xmlns="http://www.w3.org/2000/svg">
<circle cx="24" cy="24" r="24" fill="#110320" fill-opacity="0.05" />
<path
		d="M24 32H16C14.3431 32 13 30.6569 13 29V19C13 17.3431 14.3431 16 16 16H32C33.6569 16 35 17.3431 35 19V24"
		stroke="#03061D"
		stroke-width="1.5"
		stroke-linecap="round"
		stroke-linejoin="round"
	/>
<circle cx="20" cy="22" r="1.75" stroke="black" stroke-width="1.5" />
<path
		d="M23 28V28C23 26.8954 22.1046 26 21 26H19C17.8954 26 17 26.8954 17 28V28"
		stroke="black"
		stroke-width="1.6"
		stroke-linecap="round"
	/>
<path d="M31 20L25 20" stroke="black" stroke-width="1.5" stroke-linecap="round" />
<path d="M31 23L28 23" stroke="black" stroke-width="1.5" stroke-linecap="round" />
<path
		d="M29.1429 32H29C28.4477 32 28 31.5523 28 31V30.6385C28 30.2859 28.2859 30 28.6385 30V30C28.9342 30 29.1912 29.797 29.2597 29.5094L29.5 28.5C29.7094 27.6206 30.4951 27 31.3991 27H32.6506C33.5488 27 34.3266 27.6234 34.5223 28.5L34.7464 29.5038C34.8111 29.7938 35.0684 30 35.3656 30V30C35.716 30 36 30.284 36 30.6344V31C36 31.5523 35.5523 32 35 32H34.8571M29.1429 32V33M29.1429 32H34.8571M34.8571 32V33"
		stroke="#03061D"
		stroke-width="1.5"
		stroke-linecap="round"
	/>
</svg>
