<svg width="7" height="14" viewBox="0 0 7 14" fill="none" xmlns="http://www.w3.org/2000/svg">
<path
		fill-rule="evenodd"
		clip-rule="evenodd"
		d="M0 6.32601L3.51436 4.04155L7 6.3402L3.49904 0L0 6.32601ZM0.134063 6.98581L3.51819 4.75574L6.85828 6.96926L3.52011 9.20169L0.134063 6.98581ZM0 7.62432C1.23338 8.43311 2.52038 9.27973 3.51436 9.9348L7 7.62432C5.73789 9.93953 4.68646 11.8669 3.51436 14L2.79575 12.6974C1.83011 10.9471 0.834299 9.1422 0 7.62432Z"
		fill="#98A6FF"
	/>
<path
		fill-rule="evenodd"
		clip-rule="evenodd"
		d="M3.5 0L3.51313 4.04155L7 6.3402L3.5 0ZM3.51641 4.75574L6.87856 6.96926L3.51805 9.20169L3.51641 4.75574ZM3.51313 9.9348L7 7.62432C5.91849 9.93953 3.51313 14 3.51313 14V9.9348Z"
		fill="#566AEC"
	/>
</svg>
