<svg width="14" height="26" viewBox="0 0 14 26" fill="none" xmlns="http://www.w3.org/2000/svg">
<path
		fill-rule="evenodd"
		clip-rule="evenodd"
		d="M0.461751 11.7559L6.94981 7.53848L13.3848 11.7821L6.92152 0.0771484L0.461751 11.7559ZM0.709066 12.9738L6.95669 8.85677L13.123 12.9433L6.96023 17.0647L0.709066 12.9738ZM0.46167 14.1527C2.73868 15.6458 5.11469 17.2088 6.94973 18.4182L13.3847 14.1527C11.0547 18.4269 9.11359 21.9851 6.94973 25.9231L5.62283 23.5179C3.84019 20.2868 2.00185 16.9548 0.46167 14.1527Z"
		fill="#3AB83A"
	/>
<path
		fill-rule="evenodd"
		clip-rule="evenodd"
		d="M6.9231 0.0769043L6.94733 7.53824L13.3846 11.7819L6.9231 0.0769043ZM6.95313 8.8571L13.1602 12.9436L6.95616 17.065L6.95313 8.8571ZM6.94727 18.4185L13.3846 14.153C11.3879 18.4272 6.94727 25.9235 6.94727 25.9235V18.4185Z"
		fill="#0B8311"
	/>
</svg>
