<svg width="313" height="102" viewBox="0 0 313 102" fill="none" xmlns="http://www.w3.org/2000/svg">
<path
		d="M9.13072 86.4546C5.06536 86.4546 1 101 1 101H312V1C312 1 306.918 7.66667 302.853 7.66667C297.771 7.66667 297.771 17.3636 293.706 17.3636C289.641 17.3636 289.641 23.4242 284.559 23.4242C280.493 23.4242 280.493 17.3636 276.428 17.3636C271.346 17.3636 271.346 31.9091 267.281 31.9091C262.199 31.9091 262.199 27.0606 258.134 27.0606C254.069 27.0606 254.069 39.1818 248.987 39.1818C244.922 39.1818 244.922 30.697 240.856 30.697C235.775 30.697 235.775 35.5455 231.709 35.5455C226.627 35.5455 226.627 50.0909 222.562 50.0909C218.497 50.0909 218.497 27.0606 213.415 27.0606C209.35 27.0606 209.35 21.6061 205.284 21.6061C200.203 21.6061 200.203 31.9091 196.137 31.9091C191.056 31.9091 191.056 27.6667 186.99 27.6667C182.925 27.6667 182.925 45.8485 177.843 45.8485C173.778 45.8485 173.778 36.7576 169.712 36.7576C164.631 36.7576 164.631 40.3939 160.565 40.3939C156.5 40.3939 156.5 55.5455 151.418 55.5455C147.353 55.5455 147.353 53.1212 142.271 53.1212C138.206 53.1212 138.206 47.6667 134.141 47.6667C129.059 47.6667 129.059 55.5455 124.993 55.5455C120.928 55.5455 120.928 47.6667 115.846 47.6667C111.781 47.6667 111.781 60.3939 106.699 60.3939C102.634 60.3939 102.634 66.4545 98.5686 66.4545C93.4869 66.4545 93.4869 57.3636 89.4216 57.3636C85.3562 57.3636 85.3562 67.6667 80.2745 67.6667C76.2092 67.6667 76.2092 70.0909 71.1275 70.0909C67.0621 70.0909 67.0621 63.4242 62.9967 63.4242C57.915 63.4242 57.915 74.3333 53.8497 74.3333C49.7843 74.3333 49.7843 68.2727 44.7026 68.2727C40.6373 68.2727 40.6373 80.3939 35.5556 80.3939C31.4902 80.3939 31.4902 70.0909 27.4248 70.0909C22.3431 70.0909 22.3431 64.6364 18.2778 64.6364C14.2124 64.6364 14.2124 86.4546 9.13072 86.4546Z"
		fill="url(#paint0_linear)"
		fill-opacity="0.6"
	/>
<path
		d="M1 101C1 101 5.06536 86.4546 9.13072 86.4546C14.2124 86.4546 14.2124 64.6364 18.2778 64.6364C22.3431 64.6364 22.3431 70.0909 27.4248 70.0909C31.4902 70.0909 31.4902 80.3939 35.5556 80.3939C40.6373 80.3939 40.6373 68.2727 44.7026 68.2727C49.7843 68.2727 49.7843 74.3333 53.8497 74.3333C57.915 74.3333 57.915 63.4242 62.9967 63.4242C67.0621 63.4242 67.0621 70.0909 71.1275 70.0909C76.2092 70.0909 76.2092 67.6667 80.2745 67.6667C85.3562 67.6667 85.3562 57.3636 89.4216 57.3636C93.4869 57.3636 93.4869 66.4545 98.5686 66.4545C102.634 66.4545 102.634 60.3939 106.699 60.3939C111.781 60.3939 111.781 47.6667 115.846 47.6667C120.928 47.6667 120.928 55.5455 124.993 55.5455C129.059 55.5455 129.059 47.6667 134.141 47.6667C138.206 47.6667 138.206 53.1212 142.271 53.1212C147.353 53.1212 147.353 55.5455 151.418 55.5455C156.5 55.5455 156.5 40.3939 160.565 40.3939C164.631 40.3939 164.631 36.7576 169.712 36.7576C173.778 36.7576 173.778 45.8485 177.843 45.8485C182.925 45.8485 182.925 27.6667 186.99 27.6667C191.056 27.6667 191.056 31.9091 196.137 31.9091C200.203 31.9091 200.203 21.6061 205.284 21.6061C209.35 21.6061 209.35 27.0606 213.415 27.0606C218.497 27.0606 218.497 50.0909 222.562 50.0909C226.627 50.0909 226.627 35.5455 231.709 35.5455C235.775 35.5455 235.775 30.697 240.856 30.697C244.922 30.697 244.922 39.1818 248.987 39.1818C254.069 39.1818 254.069 27.0606 258.134 27.0606C262.199 27.0606 262.199 31.9091 267.281 31.9091C271.346 31.9091 271.346 17.3636 276.428 17.3636C280.493 17.3636 280.493 23.4242 284.559 23.4242C289.641 23.4242 289.641 17.3636 293.706 17.3636C297.771 17.3636 297.771 7.66667 302.853 7.66667C306.918 7.66667 312 1 312 1"
		stroke="#E6E6E8"
		stroke-width="2"
	/>
<defs>
<linearGradient
			id="paint0_linear"
			x1="156.5"
			y1="1"
			x2="156.5"
			y2="101"
			gradientUnits="userSpaceOnUse"
		>
<stop stop-color="#E6E6E8" stop-opacity="0.3" />
<stop offset="1" stop-color="#E6E6E8" stop-opacity="0" />
</linearGradient>
</defs>
</svg>
