<svg width="36" height="36" viewBox="0 0 36 36" fill="none" xmlns="http://www.w3.org/2000/svg">
<path
		d="M26.3923 16.3981C28.7958 16.3981 30.7456 14.4497 30.7456 12.0462C30.7456 9.64271 28.7958 7.69434 26.3923 7.69434"
		stroke="#03061D"
		stroke-width="2"
		stroke-linecap="round"
		stroke-linejoin="round"
	/>
<path
		d="M28.3934 21.127C29.1112 21.1765 29.8248 21.2782 30.5274 21.4363C31.5036 21.6275 32.6779 22.0276 33.0959 22.9035C33.3626 23.4644 33.3626 24.1176 33.0959 24.6799C32.6793 25.5558 31.5036 25.9546 30.5274 26.1553"
		stroke="#03061D"
		stroke-width="2"
		stroke-linecap="round"
		stroke-linejoin="round"
	/>
<path
		d="M9.43481 16.3981C7.03131 16.3981 5.08156 14.4497 5.08156 12.0462C5.08156 9.64271 7.03131 7.69434 9.43481 7.69434"
		stroke="#03061D"
		stroke-width="2"
		stroke-linecap="round"
		stroke-linejoin="round"
	/>
<path
		d="M7.43361 21.127C6.71586 21.1765 6.00223 21.2782 5.29961 21.4363C4.32336 21.6275 3.14911 22.0276 2.73248 22.9035C2.46436 23.4644 2.46436 24.1176 2.73248 24.6799C3.14773 25.5558 4.32336 25.9546 5.29961 26.1553"
		stroke="#03061D"
		stroke-width="2"
		stroke-linecap="round"
		stroke-linejoin="round"
	/>
<path
		fill-rule="evenodd"
		clip-rule="evenodd"
		d="M17.9066 22.0645C22.7768 22.0645 26.9376 22.8015 26.9376 25.7508C26.9376 28.6988 22.8043 29.4633 17.9066 29.4633C13.0349 29.4633 8.87555 28.7263 8.87555 25.777C8.87555 22.8276 13.0088 22.0645 17.9066 22.0645Z"
		stroke="#03061D"
		stroke-width="2"
		stroke-linecap="round"
		stroke-linejoin="round"
	/>
<path
		fill-rule="evenodd"
		clip-rule="evenodd"
		d="M17.9067 17.8574C14.6947 17.8574 12.1193 15.282 12.1193 12.0686C12.1193 8.85662 14.6947 6.28125 17.9067 6.28125C21.1187 6.28125 23.6941 8.85662 23.6941 12.0686C23.6941 15.282 21.1187 17.8574 17.9067 17.8574Z"
		stroke="#03061D"
		stroke-width="2"
		stroke-linecap="round"
		stroke-linejoin="round"
	/>
</svg>
