<svg width="36" height="36" viewBox="0 0 36 36" fill="none" xmlns="http://www.w3.org/2000/svg">
<path
		d="M26.3921 16.3976C28.7956 16.3976 30.7453 14.4492 30.7453 12.0457C30.7453 9.64222 28.7956 7.69385 26.3921 7.69385"
		stroke="#566AEC"
		stroke-width="2"
		stroke-linecap="round"
		stroke-linejoin="round"
	/>
<path
		d="M28.3931 21.1274C29.1108 21.1769 29.8244 21.2787 30.5271 21.4368C31.5033 21.6279 32.6776 22.0281 33.0956 22.9039C33.3623 23.4649 33.3623 24.1181 33.0956 24.6804C32.6789 25.5563 31.5033 25.9551 30.5271 26.1558"
		stroke="#566AEC"
		stroke-width="2"
		stroke-linecap="round"
		stroke-linejoin="round"
	/>
<path
		d="M9.43479 16.3976C7.03129 16.3976 5.08154 14.4492 5.08154 12.0457C5.08154 9.64222 7.03129 7.69385 9.43479 7.69385"
		stroke="#566AEC"
		stroke-width="2"
		stroke-linecap="round"
		stroke-linejoin="round"
	/>
<path
		d="M7.43347 21.1274C6.71572 21.1769 6.00209 21.2787 5.29947 21.4368C4.32322 21.6279 3.14897 22.0281 2.73234 22.9039C2.46422 23.4649 2.46422 24.1181 2.73234 24.6804C3.14759 25.5563 4.32322 25.9551 5.29947 26.1558"
		stroke="#566AEC"
		stroke-width="2"
		stroke-linecap="round"
		stroke-linejoin="round"
	/>
<path
		fill-rule="evenodd"
		clip-rule="evenodd"
		d="M17.9065 22.0645C22.7767 22.0645 26.9375 22.8015 26.9375 25.7508C26.9375 28.6988 22.8042 29.4633 17.9065 29.4633C13.0349 29.4633 8.87549 28.7263 8.87549 25.777C8.87549 22.8276 13.0087 22.0645 17.9065 22.0645Z"
		stroke="#566AEC"
		stroke-width="2"
		stroke-linecap="round"
		stroke-linejoin="round"
	/>
<path
		fill-rule="evenodd"
		clip-rule="evenodd"
		d="M17.9065 17.8574C14.6945 17.8574 12.1191 15.282 12.1191 12.0686C12.1191 8.85663 14.6945 6.28125 17.9065 6.28125C21.1185 6.28125 23.6939 8.85663 23.6939 12.0686C23.6939 15.282 21.1185 17.8574 17.9065 17.8574Z"
		stroke="#566AEC"
		stroke-width="2"
		stroke-linecap="round"
		stroke-linejoin="round"
	/>
</svg>
