<svg width="54" height="56" viewBox="0 0 54 56" fill="none" xmlns="http://www.w3.org/2000/svg">
<path
		d="M0 10C0 4.47715 4.47715 0 10 0H44C49.5228 0 54 4.47715 54 10V46C54 51.5229 49.5228 56 44 56H10C4.47715 56 0 51.5228 0 46V10Z"
		fill="#566AEC"
		fill-opacity="0.1"
	/>
<path
		d="M35.3926 26.3981C37.7961 26.3981 39.7458 24.4497 39.7458 22.0462C39.7458 19.6427 37.7961 17.6943 35.3926 17.6943"
		stroke="#566AEC"
		stroke-width="2"
		stroke-linecap="round"
		stroke-linejoin="round"
	/>
<path
		d="M37.3936 31.127C38.1113 31.1765 38.8249 31.2782 39.5276 31.4363C40.5038 31.6275 41.6781 32.0276 42.096 32.9035C42.3628 33.4644 42.3628 34.1176 42.096 34.6799C41.6794 35.5558 40.5038 35.9546 39.5276 36.1553"
		stroke="#566AEC"
		stroke-width="2"
		stroke-linecap="round"
		stroke-linejoin="round"
	/>
<path
		d="M18.4343 26.3981C16.0308 26.3981 14.0811 24.4497 14.0811 22.0462C14.0811 19.6427 16.0308 17.6943 18.4343 17.6943"
		stroke="#566AEC"
		stroke-width="2"
		stroke-linecap="round"
		stroke-linejoin="round"
	/>
<path
		d="M16.4335 31.127C15.7157 31.1765 15.0021 31.2782 14.2995 31.4363C13.3232 31.6275 12.149 32.0276 11.7323 32.9035C11.4642 33.4644 11.4642 34.1176 11.7323 34.6799C12.1476 35.5558 13.3232 35.9546 14.2995 36.1553"
		stroke="#566AEC"
		stroke-width="2"
		stroke-linecap="round"
		stroke-linejoin="round"
	/>
<path
		fill-rule="evenodd"
		clip-rule="evenodd"
		d="M26.906 32.0645C31.7763 32.0645 35.937 32.8015 35.937 35.7508C35.937 38.6988 31.8038 39.4633 26.906 39.4633C22.0344 39.4633 17.875 38.7263 17.875 35.777C17.875 32.8276 22.0083 32.0645 26.906 32.0645Z"
		stroke="#566AEC"
		stroke-width="2"
		stroke-linecap="round"
		stroke-linejoin="round"
	/>
<path
		fill-rule="evenodd"
		clip-rule="evenodd"
		d="M26.9065 27.8574C23.6945 27.8574 21.1191 25.282 21.1191 22.0686C21.1191 18.8566 23.6945 16.2812 26.9065 16.2812C30.1185 16.2812 32.6939 18.8566 32.6939 22.0686C32.6939 25.282 30.1185 27.8574 26.9065 27.8574Z"
		stroke="#566AEC"
		stroke-width="2"
		stroke-linecap="round"
		stroke-linejoin="round"
	/>
</svg>
