<svg width="24" height="24" viewBox="0 0 24 24" fill="none" xmlns="http://www.w3.org/2000/svg">
<path
		fill-rule="evenodd"
		clip-rule="evenodd"
		d="M16.6892 2H7.31187C4.04736 2 2 4.31278 2 7.58578V16.4142C2 19.6872 4.03869 22 7.31187 22H16.6838C19.9624 22 22 19.6872 22 16.4142V7.58578C22.0043 4.31278 19.9656 2 16.6892 2Z"
		stroke="#03061D"
		stroke-width="2"
		stroke-linecap="round"
		stroke-linejoin="round"
	/>
<path
		d="M8.04794 15.108C7.12994 15.108 6.35894 14.823 5.73494 14.253C5.11094 13.683 4.79894 12.933 4.79894 12.003C4.79894 11.073 5.11094 10.323 5.73494 9.753C6.35894 9.183 7.12994 8.898 8.04794 8.898C8.67194 8.898 9.19694 9.036 9.62294 9.312C10.0489 9.588 10.3789 9.936 10.6129 10.356L9.31694 11.031C9.19694 10.815 9.02294 10.635 8.79494 10.491C8.57294 10.341 8.32394 10.266 8.04794 10.266C7.56194 10.266 7.15994 10.434 6.84194 10.77C6.52994 11.1 6.37394 11.511 6.37394 12.003C6.37394 12.495 6.52994 12.909 6.84194 13.245C7.15994 13.575 7.56194 13.74 8.04794 13.74C8.25794 13.74 8.46494 13.704 8.66894 13.632C8.87894 13.56 9.04094 13.476 9.15494 13.38V12.912H7.80494V11.553H10.7029V13.938C9.99494 14.718 9.10994 15.108 8.04794 15.108ZM13.4068 15H11.8588V8.997H13.4068V15ZM16.2848 15H14.7368V8.997H19.1378V10.347H16.2848V11.283H19.0748V12.633H16.2848V15Z"
		fill="#03061D"
	/>
</svg>
