<svg width="345" height="102" viewBox="0 0 345 102" fill="none" xmlns="http://www.w3.org/2000/svg">
<path
		d="M9.96732 86.4546C5.48366 86.4546 1 101 1 101H344V1C344 1 338.395 7.66667 333.912 7.66667C328.307 7.66667 328.307 17.3636 323.824 17.3636C319.34 17.3636 319.34 23.4242 313.735 23.4242C309.252 23.4242 309.252 17.3636 304.768 17.3636C299.163 17.3636 299.163 31.9091 294.68 31.9091C289.075 31.9091 289.075 27.0606 284.592 27.0606C280.108 27.0606 280.108 39.1818 274.503 39.1818C270.02 39.1818 270.02 30.697 265.536 30.697C259.931 30.697 259.931 35.5455 255.448 35.5455C249.843 35.5455 249.843 50.0909 245.359 50.0909C240.876 50.0909 240.876 27.0606 235.271 27.0606C230.788 27.0606 230.788 21.6061 226.304 21.6061C220.699 21.6061 220.699 31.9091 216.216 31.9091C210.611 31.9091 210.611 27.6667 206.127 27.6667C201.644 27.6667 201.644 45.8485 196.039 45.8485C191.556 45.8485 191.556 36.7576 187.072 36.7576C181.467 36.7576 181.467 40.3939 176.984 40.3939C172.5 40.3939 172.5 55.5455 166.895 55.5455C162.412 55.5455 162.412 53.1212 156.807 53.1212C152.324 53.1212 152.324 47.6667 147.84 47.6667C142.235 47.6667 142.235 55.5455 137.752 55.5455C133.268 55.5455 133.268 47.6667 127.663 47.6667C123.18 47.6667 123.18 60.3939 117.575 60.3939C113.092 60.3939 113.092 66.4545 108.608 66.4545C103.003 66.4545 103.003 57.3636 98.5196 57.3636C94.0359 57.3636 94.0359 67.6667 88.4314 67.6667C83.9477 67.6667 83.9477 70.0909 78.3431 70.0909C73.8595 70.0909 73.8595 63.4242 69.3758 63.4242C63.7712 63.4242 63.7712 74.3333 59.2876 74.3333C54.8039 74.3333 54.8039 68.2727 49.1993 68.2727C44.7157 68.2727 44.7157 80.3939 39.1111 80.3939C34.6275 80.3939 34.6275 70.0909 30.1438 70.0909C24.5392 70.0909 24.5392 64.6364 20.0556 64.6364C15.5719 64.6364 15.5719 86.4546 9.96732 86.4546Z"
		fill="url(#paint0_linear)"
		fill-opacity="0.6"
	/>
<path
		d="M1 101C1 101 5.48366 86.4546 9.96732 86.4546C15.5719 86.4546 15.5719 64.6364 20.0556 64.6364C24.5392 64.6364 24.5392 70.0909 30.1438 70.0909C34.6275 70.0909 34.6275 80.3939 39.1111 80.3939C44.7157 80.3939 44.7157 68.2727 49.1993 68.2727C54.8039 68.2727 54.8039 74.3333 59.2876 74.3333C63.7712 74.3333 63.7712 63.4242 69.3758 63.4242C73.8595 63.4242 73.8595 70.0909 78.3431 70.0909C83.9477 70.0909 83.9477 67.6667 88.4314 67.6667C94.036 67.6667 94.036 57.3636 98.5196 57.3636C103.003 57.3636 103.003 66.4545 108.608 66.4545C113.092 66.4545 113.092 60.3939 117.575 60.3939C123.18 60.3939 123.18 47.6667 127.663 47.6667C133.268 47.6667 133.268 55.5455 137.752 55.5455C142.235 55.5455 142.235 47.6667 147.84 47.6667C152.324 47.6667 152.324 53.1212 156.807 53.1212C162.412 53.1212 162.412 55.5455 166.895 55.5455C172.5 55.5455 172.5 40.3939 176.984 40.3939C181.467 40.3939 181.467 36.7576 187.072 36.7576C191.556 36.7576 191.556 45.8485 196.039 45.8485C201.644 45.8485 201.644 27.6667 206.127 27.6667C210.611 27.6667 210.611 31.9091 216.216 31.9091C220.699 31.9091 220.699 21.6061 226.304 21.6061C230.788 21.6061 230.788 27.0606 235.271 27.0606C240.876 27.0606 240.876 50.0909 245.359 50.0909C249.843 50.0909 249.843 35.5455 255.448 35.5455C259.931 35.5455 259.931 30.697 265.536 30.697C270.02 30.697 270.02 39.1818 274.503 39.1818C280.108 39.1818 280.108 27.0606 284.592 27.0606C289.075 27.0606 289.075 31.9091 294.68 31.9091C299.163 31.9091 299.163 17.3636 304.768 17.3636C309.252 17.3636 309.252 23.4242 313.735 23.4242C319.34 23.4242 319.34 17.3636 323.824 17.3636C328.307 17.3636 328.307 7.66667 333.912 7.66667C338.395 7.66667 344 1 344 1"
		stroke="#E6E6E8"
		stroke-width="2"
	/>
<defs>
<linearGradient
			id="paint0_linear"
			x1="172.5"
			y1="1"
			x2="172.5"
			y2="101"
			gradientUnits="userSpaceOnUse"
		>
<stop stop-color="#CDCDD2" stop-opacity="0.3" />
<stop offset="1" stop-color="#CDCDD2" stop-opacity="0" />
</linearGradient>
</defs>
</svg>
