<svg width="70" height="70" viewBox="0 0 70 70" fill="none" xmlns="http://www.w3.org/2000/svg">
<path
		fill-rule="evenodd"
		clip-rule="evenodd"
		d="M24.5179 24.3782C24.5179 18.9611 28.854 14.625 34.2711 14.625C39.6882 14.625 44.0243 18.9611 44.0243 24.3782C44.0243 29.7983 39.688 34.1341 34.2711 34.1341C28.8542 34.1341 24.5179 29.7983 24.5179 24.3782ZM34.2711 11.625C27.1971 11.625 21.5179 17.3042 21.5179 24.3782C21.5179 31.4547 27.1969 37.1341 34.2711 37.1341C41.3453 37.1341 47.0243 31.4547 47.0243 24.3782C47.0243 17.3042 41.3451 11.625 34.2711 11.625ZM17.7986 17.3722C13.9529 17.3722 10.8339 20.4897 10.8339 24.3342C10.8339 28.1786 13.9529 31.2962 17.7986 31.2962C18.627 31.2962 19.2986 31.9677 19.2986 32.7962C19.2986 33.6246 18.627 34.2962 17.7986 34.2962C12.2973 34.2962 7.8339 29.8367 7.8339 24.3342C7.8339 18.8317 12.2973 14.3722 17.7986 14.3722C18.627 14.3722 19.2986 15.0438 19.2986 15.8722C19.2986 16.7006 18.627 17.3722 17.7986 17.3722ZM50.7711 14.3722C49.9426 14.3722 49.2711 15.0438 49.2711 15.8722C49.2711 16.7006 49.9426 17.3722 50.7711 17.3722C54.6167 17.3722 57.7357 20.4897 57.7357 24.3342C57.7357 28.1786 54.6167 31.2962 50.7711 31.2962C49.9426 31.2962 49.2711 31.9677 49.2711 32.7962C49.2711 33.6246 49.9426 34.2962 50.7711 34.2962C56.2724 34.2962 60.7357 29.8367 60.7357 24.3342C60.7357 18.8317 56.2724 14.3722 50.7711 14.3722ZM54.7658 40.4962C53.9393 40.4392 53.2231 41.0629 53.1661 41.8894C53.1091 42.7159 53.7329 43.432 54.5594 43.489C55.8824 43.5803 57.1942 43.7676 58.4827 44.0576C58.4964 44.0606 58.5101 44.0635 58.5238 44.0662C59.4059 44.2389 60.3054 44.4937 61.0466 44.8635C61.7966 45.2377 62.245 45.6587 62.4521 46.092C62.7762 46.7743 62.7768 47.5709 62.4515 48.2575C62.2459 48.689 61.7989 49.1096 61.0458 49.4865C60.3019 49.8589 59.399 50.1179 58.5099 50.3007C57.6984 50.4676 57.1759 51.2607 57.3428 52.0721C57.5096 52.8836 58.3027 53.4061 59.1142 53.2392C60.1233 53.0317 61.3125 52.7079 62.3886 52.1692C63.4553 51.6353 64.5562 50.8169 65.1609 49.5455L65.1616 49.544C65.873 48.0442 65.8737 46.3017 65.161 44.8028L65.1601 44.8008C64.5542 43.5314 63.4547 42.7122 62.3859 42.179C61.315 41.6447 60.1326 41.3254 59.121 41.1262C57.6836 40.8038 56.2271 40.5969 54.7658 40.4962ZM14.0103 43.489C14.8368 43.432 15.4605 42.7159 15.4035 41.8894C15.3465 41.0629 14.6304 40.4392 13.8039 40.4962C12.3426 40.5969 10.8861 40.8038 9.44868 41.1262C8.43708 41.3254 7.25461 41.6447 6.18394 42.1791C5.11575 42.7122 4.01658 43.5314 3.41207 44.8013C2.69578 46.3009 2.69642 48.0447 3.41133 49.5453C4.01475 50.8169 5.11522 51.6354 6.18116 52.1691C7.25707 52.7079 8.44638 53.0317 9.45552 53.2392C10.267 53.4061 11.06 52.8836 11.2269 52.0721C11.3938 51.2607 10.8712 50.4676 10.0598 50.3007C9.17065 50.1179 8.26786 49.8589 7.52438 49.4866C6.77134 49.1096 6.32557 48.6893 6.12141 48.2586L6.12 48.2557C5.79309 47.57 5.79378 46.775 6.11939 46.0937L6.12058 46.0912C6.3263 45.6587 6.77343 45.2378 7.52361 44.8634C8.26432 44.4937 9.16374 44.2389 10.0458 44.0662C10.0596 44.0635 10.0733 44.0606 10.087 44.0576C11.3754 43.7676 12.6873 43.5803 14.0103 43.489ZM19.2008 48.521C18.5598 49.1928 18.211 49.9919 18.211 51.0328C18.211 52.0706 18.5606 52.8646 19.2031 53.5316C19.8811 54.2356 20.9413 54.8507 22.4158 55.3452C25.3802 56.3393 29.5668 56.7008 34.2713 56.7008C38.9986 56.7008 43.1835 56.3262 46.1397 55.3209C47.61 54.8209 48.6662 54.2006 49.3419 53.4927C49.9829 52.8209 50.3316 52.0221 50.3316 50.982C50.3316 49.9444 49.982 49.1504 49.3393 48.4834C48.661 47.7794 47.6006 47.1642 46.1258 46.6697C43.161 45.6755 38.9744 45.3141 34.2713 45.3141C29.5438 45.3141 25.3589 45.688 22.4027 46.693C20.9325 47.1929 19.8764 47.813 19.2008 48.521ZM21.437 43.8527C24.8801 42.6821 29.4753 42.3141 34.2713 42.3141C39.0381 42.3141 43.6316 42.6692 47.0795 43.8253C48.8111 44.4059 50.3651 45.2243 51.4997 46.4019C52.6699 47.6165 53.3316 49.1522 53.3316 50.982C53.3316 52.808 52.6756 54.3446 51.5122 55.5638C50.3833 56.7468 48.8351 57.573 47.1057 58.1611C43.6626 59.3321 39.0674 59.7008 34.2713 59.7008C29.5032 59.7008 24.9096 59.3457 21.462 58.1896C19.7306 57.6089 18.1768 56.7906 17.0424 55.6129C15.8724 54.3982 15.211 52.8625 15.211 51.0328C15.211 49.2064 15.8668 47.6694 17.0304 46.45C18.1593 45.2668 19.7076 44.4407 21.437 43.8527Z"
		fill="url(#paint0_linear)"
	/>
<defs>
<linearGradient
			id="paint0_linear"
			x1="65.6953"
			y1="35.3041"
			x2="2.875"
			y2="35.3041"
			gradientUnits="userSpaceOnUse"
		>
<stop stop-color="#06C7DF" />
<stop offset="0.755839" stop-color="#DA1EFB" />
<stop offset="0.834455" stop-color="#DC1EDC" />
<stop offset="0.875988" stop-color="#DE1EC6" />
<stop offset="0.928645" stop-color="#DF1EB3" />
<stop offset="0.959795" stop-color="#E01E9F" />
<stop offset="1" stop-color="#E31F8B" />
</linearGradient>
</defs>
</svg>
