<svg width="24" height="24" viewBox="0 0 24 24" fill="none" xmlns="http://www.w3.org/2000/svg">
<path
		fill-rule="evenodd"
		clip-rule="evenodd"
		d="M4.76994 16.6461L4.60502 16.483L4.40044 16.2831L2.33759 14.2174C2.30816 14.1882 2.28423 14.1641 2.23391 14.113C2.18523 14.0637 2.16532 14.0436 2.13876 14.0172C2.11209 13.9906 2.09434 13.9726 2.05176 13.9294L1.97699 13.8531C1.80304 13.6807 1.63787 13.4995 1.4821 13.3105C1.33968 13.1563 1.22367 12.9795 1.13882 12.7873L1.11325 12.7202C0.96225 12.2519 0.96225 11.7481 1.11325 11.2798L1.13694 11.217C1.22064 11.0239 1.33729 10.847 1.48158 10.6941C1.63101 10.5074 1.79171 10.3301 1.96278 10.163C2.01127 10.1094 2.05444 10.0652 2.13866 9.98103C2.16214 9.95772 2.18276 9.93689 2.23195 9.88695L2.28405 9.83435L2.31229 9.80615L2.33462 9.78415L4.38736 7.73307C4.45136 7.66594 4.50896 7.60864 4.59941 7.52075L4.6842 7.43666C4.71821 7.40307 4.74744 7.37452 4.77639 7.34673L7.07586 5.05131C7.17675 4.94751 7.26823 4.85688 7.41567 4.71332C7.51124 4.61542 7.61044 4.5185 7.72115 4.41406C7.80834 4.32086 7.82694 4.30145 7.83788 4.2915C8.14803 3.98198 8.50466 3.72285 8.89626 3.52278C9.28582 3.32486 9.70331 3.18756 10.1304 3.11627C10.5282 3.04752 10.931 3.01172 11.3198 3.00949C11.4204 3.00671 11.4663 3.00549 11.523 3.00417C11.6417 3.00141 11.742 3 11.8397 3H18.3261C18.474 3 18.5903 3.00242 18.8302 3.00924C19.2346 3.0117 19.6381 3.04748 20.0329 3.11561C20.4634 3.18749 20.8803 3.32498 21.268 3.52268C21.6598 3.72161 22.0177 3.98136 22.3281 4.29207C22.6376 4.60167 22.8969 4.9577 23.0995 5.35308C23.2939 5.74123 23.4302 6.15582 23.5053 6.59024C23.5695 6.98436 23.6043 7.38272 23.6091 7.7702C23.6124 7.8823 23.6138 7.96847 23.6161 8.161L23.6177 8.29385V15.7062C23.6177 15.8692 23.6148 16.038 23.6093 16.218C23.6043 16.6173 23.5695 17.0156 23.5042 17.4164C23.4302 17.8442 23.2939 18.2588 23.0954 18.655C22.8951 19.0422 22.6369 19.3966 22.3283 19.7077C22.0177 20.0186 21.6598 20.2784 21.2691 20.4767C20.8803 20.675 20.4634 20.8125 20.0323 20.8845C19.6363 20.9503 19.2359 20.9858 18.8452 20.9905C18.5903 20.9976 18.474 21 18.3261 21H17.7331V20.3077V19.6154H18.3261C18.4569 19.6154 18.5646 19.6131 18.8174 19.6062C19.1485 19.6021 19.4789 19.5728 19.8049 19.5187C20.0957 19.4701 20.3774 19.3772 20.6412 19.2427C20.9027 19.11 21.1414 18.9367 21.347 18.7308C21.555 18.5212 21.7299 18.2811 21.8614 18.0269C21.9951 17.7599 22.0889 17.4747 22.1387 17.1872C22.1918 16.8609 22.2206 16.531 22.2251 16.1887C22.2304 16.0096 22.2331 15.8542 22.2331 15.7062V8.59038L22.2331 8.30346L22.2316 8.17732C22.2294 7.99302 22.2281 7.91244 22.2248 7.79954C22.2206 7.46896 22.1918 7.13915 22.1398 6.81949C22.0889 6.52525 21.9951 6.24007 21.8644 5.97886C21.7304 5.71752 21.5565 5.47869 21.3486 5.27079C21.1414 5.06334 20.9027 4.89004 20.6401 4.75673C20.3774 4.62277 20.0957 4.52988 19.8012 4.48069C19.4777 4.42488 19.1501 4.39583 18.8068 4.39358C18.5646 4.38685 18.4569 4.38462 18.3261 4.38462H11.8397C11.7541 4.38462 11.664 4.38589 11.5552 4.38842C11.5054 4.38957 11.4645 4.39065 11.3686 4.39316L11.3432 4.39383C11.0157 4.39584 10.6889 4.42488 10.3623 4.48132C10.0703 4.53007 9.78738 4.62311 9.52482 4.7565C9.26313 4.8902 9.02395 5.06399 8.80199 5.28512C8.72828 5.36401 8.69897 5.39489 8.67368 5.41896C8.57356 5.51342 8.48765 5.59736 8.39452 5.69246C8.24339 5.83991 8.15878 5.92375 8.06193 6.02328L5.72666 8.3595C5.68882 8.39062 5.67377 8.4054 5.65717 8.4218L5.60265 8.47584C5.48585 8.59002 5.43837 8.63726 5.37782 8.70047L3.30831 10.7685L3.28758 10.789L3.26482 10.8117L3.2178 10.8592C3.16811 10.9097 3.14279 10.9352 3.11599 10.9618C3.0421 11.0357 3.01174 11.067 2.9787 11.104C2.80158 11.2781 2.66868 11.425 2.54591 11.5802L2.49537 11.6374C2.46529 11.6678 2.44 11.7026 2.4203 11.7404C2.37286 11.9097 2.37272 12.0888 2.41989 12.2581C2.44241 12.3014 2.47092 12.3413 2.50462 12.3768C2.66843 12.5739 2.80639 12.7256 2.95808 12.8761L2.99939 12.9182L3.03905 12.9586C3.0789 12.9991 3.09433 13.0147 3.11609 13.0364C3.14551 13.0656 3.16944 13.0898 3.21976 13.1408C3.26844 13.1902 3.28836 13.2102 3.31524 13.2369L5.37404 15.2986L5.57558 15.4955L5.71016 15.6286C5.73427 15.6485 5.75718 15.6699 5.77874 15.6926L8.06959 17.9826C8.16334 18.0787 8.25801 18.1725 8.40831 18.3195C8.48371 18.3967 8.55988 18.4712 8.66523 18.5723C8.69434 18.5988 8.70052 18.6053 8.76838 18.6771C8.79122 18.7012 8.80869 18.7195 8.8178 18.7284C9.0258 18.936 9.26498 19.1098 9.52526 19.2428C9.78923 19.3769 10.0721 19.4699 10.3638 19.5186C10.6896 19.5728 11.0191 19.6021 11.3599 19.6064C11.4596 19.6092 11.503 19.6103 11.5571 19.6116C11.6658 19.6141 11.7559 19.6154 11.8415 19.6154H17.7312V20.3077L17.7331 21H17.7312H11.8415C11.7439 21 11.6435 20.9986 11.5249 20.9958C11.4681 20.9945 11.4223 20.9933 11.3322 20.9907C10.9315 20.9857 10.5318 20.9502 10.1361 20.8844C9.70515 20.8124 9.28767 20.6751 8.8967 20.4765C8.50651 20.2771 8.14987 20.018 7.85368 19.722C7.82906 19.6988 7.81555 19.6847 7.76206 19.6281L7.72088 19.5848C7.59214 19.4616 7.50634 19.3777 7.42946 19.2986C7.28369 19.1564 7.18195 19.0555 7.08471 18.9558L4.84659 16.7186L4.76994 16.6461ZM17.2705 8.45538C17.5036 8.22259 17.8813 8.22279 18.1142 8.45581C18.3466 8.68831 18.3471 9.06482 18.1158 9.29797L18.1224 9.30461L15.431 11.9964L18.0389 14.6C18.0697 14.6212 18.0986 14.6453 18.1251 14.6723C18.357 14.9051 18.3565 15.2816 18.124 15.5138C17.8919 15.7455 17.5162 15.7459 17.2836 15.5148L17.2769 15.5216L14.5882 12.8393L11.9018 15.5261L11.892 15.5163C11.6587 15.7449 11.2844 15.7436 11.0527 15.5123C10.821 15.2784 10.821 14.9015 11.0527 14.6677C11.0835 14.6369 11.1168 14.6102 11.152 14.5876L13.7431 11.9961L11.0498 9.30925L11.0612 9.29783C10.8324 9.06541 10.8331 8.69156 11.0637 8.46001C11.175 8.34703 11.3269 8.28342 11.4855 8.28342C11.6441 8.28342 11.7961 8.34703 11.9074 8.46001C11.9371 8.48989 11.9631 8.52214 11.9852 8.55614L14.5862 11.1529L17.2048 8.53391C17.2241 8.50636 17.246 8.48007 17.2705 8.45538Z"
		fill="#03061D"
	/>
</svg>
