<svg width="24" height="24" viewBox="0 0 24 24" fill="none" xmlns="http://www.w3.org/2000/svg">
<mask id="path-1-inside-1" fill="white">
<path
			fill-rule="evenodd"
			clip-rule="evenodd"
			d="M3.61444 4.63319C1.52343 6.74849 1.46361 10.1405 3.43501 12.3288L12.0067 21L19.7977 13.1186L19.7952 13.1161L20.3856 12.5189C22.5382 10.3413 22.5382 6.81077 20.3856 4.63319C18.233 2.4556 14.7429 2.4556 12.5903 4.63319L12 5.23038L11.4097 4.63319C9.25708 2.4556 5.76704 2.4556 3.61444 4.63319Z"
		/>
</mask>
<path
		d="M3.43501 12.3288L1.94906 13.6674L1.98008 13.7019L2.01266 13.7348L3.43501 12.3288ZM3.61444 4.63319L2.19209 3.22716L2.19209 3.22716L3.61444 4.63319ZM12.0067 21L10.5843 22.406L12.0067 23.8449L13.429 22.406L12.0067 21ZM19.7977 13.1186L21.22 14.5246L22.61 13.1184L21.2199 11.7124L19.7977 13.1186ZM19.7952 13.1161L18.3729 11.7101L16.9828 13.1163L18.373 14.5223L19.7952 13.1161ZM20.3856 12.5189L21.8079 13.925L21.8079 13.9249L20.3856 12.5189ZM20.3856 4.63319L18.9632 6.03922L20.3856 4.63319ZM12.5903 4.63319L14.0127 6.03922V6.03922L12.5903 4.63319ZM12 5.23038L10.5777 6.63641L12 8.07527L13.4224 6.63641L12 5.23038ZM11.4097 4.63319L12.832 3.22716L12.832 3.22716L11.4097 4.63319ZM4.92096 10.9902C3.65488 9.58477 3.69481 7.39678 5.0368 6.03922L2.19209 3.22716C-0.647963 6.10019 -0.727659 10.6962 1.94906 13.6674L4.92096 10.9902ZM13.429 19.594L4.85736 10.9228L2.01266 13.7348L10.5843 22.406L13.429 19.594ZM13.429 22.406L21.22 14.5246L18.3753 11.7125L10.5843 19.594L13.429 22.406ZM18.373 14.5223L18.3755 14.5247L21.2199 11.7124L21.2174 11.7099L18.373 14.5223ZM18.9632 11.1129L18.3729 11.7101L21.2176 14.5221L21.8079 13.925L18.9632 11.1129ZM18.9632 6.03922C20.3456 7.43766 20.3456 9.71445 18.9632 11.1129L21.8079 13.9249C24.7307 10.9682 24.7307 6.18389 21.8079 3.22716L18.9632 6.03922ZM14.0127 6.03922C15.3824 4.6536 17.5935 4.6536 18.9632 6.03922L21.8079 3.22716C18.8725 0.257614 14.1035 0.257613 11.168 3.22716L14.0127 6.03922ZM13.4224 6.63641L14.0127 6.03922L11.168 3.22716L10.5777 3.82435L13.4224 6.63641ZM9.98732 6.03922L10.5777 6.63641L13.4224 3.82435L12.832 3.22716L9.98732 6.03922ZM5.0368 6.03922C6.40652 4.65359 8.6176 4.65359 9.98732 6.03922L12.832 3.22716C9.89656 0.257612 5.12756 0.257614 2.19209 3.22716L5.0368 6.03922Z"
		fill="#03061D"
		mask="url(#path-1-inside-1)"
	/>
</svg>
