<svg width="32" height="32" viewBox="0 0 32 32" fill="none" xmlns="http://www.w3.org/2000/svg">
<path
		d="M9.73462 27.6607L13.3299 18.6724L16.3412 21.6838C16.7889 22.1584 17.6499 21.9818 17.8746 21.3691L21.3633 12.6475L24.3746 15.6588C24.8379 16.1506 25.7326 15.9396 25.9269 15.2924L29.9436 3.24239C30.1073 2.7512 29.8418 2.22027 29.3506 2.05652C28.8593 1.89283 28.3285 2.15833 28.1647 2.64945L24.6278 13.2603L21.6838 10.3163C21.236 9.84158 20.3751 10.0184 20.1504 10.631L16.6618 19.3526L13.6504 16.3413C13.2027 15.8667 12.3417 16.0433 12.117 16.656L8.22944 26.375H3.75V28.25H8.86419C9.2475 28.25 9.59225 28.0166 9.73462 27.6607V27.6607Z"
		fill="black"
	/>
<path
		d="M31.0625 30.125H1.875V0.9375C1.875 0.41975 1.45525 0 0.9375 0C0.41975 0 0 0.41975 0 0.9375V31.0625C0 31.5803 0.41975 32 0.9375 32H31.0625C31.5803 32 32 31.5803 32 31.0625C32 30.5447 31.5803 30.125 31.0625 30.125Z"
		fill="black"
	/>
</svg>
