<svg width="12" height="15" viewBox="0 0 12 15" fill="none" xmlns="http://www.w3.org/2000/svg">
<path fill-rule="evenodd" clip-rule="evenodd" d="M11.4872 6.22848C11.7108 4.73122 10.5708 3.92633 9.01201 3.38938L9.51766 1.36115L8.28272 1.05347L7.79043 3.02825C7.46622 2.94738 7.13287 2.87107 6.80163 2.79547L7.29744 0.80768L6.06355 0.5L5.55755 2.52753C5.2889 2.46634 5.02517 2.40586 4.76918 2.34221L4.77059 2.33589L3.06798 1.91076L2.73955 3.22939C2.73955 3.22939 3.65556 3.43931 3.63622 3.45233C4.13624 3.57716 4.22696 3.90804 4.21149 4.17036L3.63551 6.48096C3.66997 6.48975 3.71463 6.50241 3.76386 6.5221L3.63376 6.48975L2.82605 9.72654C2.76487 9.87845 2.6098 10.1063 2.26027 10.0198C2.27258 10.0377 1.3629 9.79582 1.3629 9.79582L0.75 11.2094L2.35697 11.6099C2.53838 11.6554 2.71759 11.7021 2.89483 11.7484L2.89483 11.7484C3.00961 11.7783 3.12357 11.808 3.23676 11.8371L2.72584 13.8888L3.95902 14.1965L4.46537 12.1669C4.80189 12.2583 5.12891 12.3427 5.44889 12.4222L4.94465 14.4423L6.17924 14.75L6.69016 12.7024C8.7954 13.1008 10.3788 12.9401 11.0445 11.0364C11.5814 9.50326 11.0181 8.6189 9.91043 8.04186C10.7171 7.85514 11.3247 7.32453 11.4868 6.22848H11.4872ZM8.6656 10.1835C8.31511 11.5906 6.11213 11.0084 5.10506 10.7423C5.01488 10.7184 4.93429 10.6971 4.86548 10.68L5.54343 7.96224C5.62753 7.98323 5.73027 8.00629 5.84666 8.0324L5.8467 8.03241C6.88855 8.2662 9.02368 8.74532 8.66595 10.1835H8.6656ZM6.20289 7.51806C7.04319 7.74224 8.87482 8.23089 9.1939 6.95263C9.52011 5.64493 7.73904 5.25078 6.86918 5.05829C6.7714 5.03665 6.68512 5.01755 6.61466 5L6 7.46496C6.05816 7.47945 6.12642 7.49766 6.20289 7.51806Z" fill="#F7931A"/>
</svg>
