<svg width="11" height="20" viewBox="0 0 11 20" fill="none" xmlns="http://www.w3.org/2000/svg">
<path fill-rule="evenodd" clip-rule="evenodd" d="M0.845741 9.06714L5.71178 5.90404L10.538 9.08679L5.69057 0.308044L0.845741 9.06714ZM1.03129 9.98045L5.71701 6.89267L10.3417 9.95753L5.71966 13.0486L1.03129 9.98045ZM0.845703 10.8646C2.55346 11.9845 4.33546 13.1567 5.71175 14.0638L10.538 10.8646C8.79048 14.0703 7.33464 16.739 5.71175 19.6925L4.71656 17.8886C3.37958 15.4653 2.00083 12.9662 0.845703 10.8646Z" fill="#3AB83A"/>
<path fill-rule="evenodd" clip-rule="evenodd" d="M5.69141 0.307739L5.70958 5.90374L10.5376 9.08648L5.69141 0.307739ZM5.71398 6.89285L10.3693 9.95772L5.71625 13.0488L5.71398 6.89285ZM5.70959 14.0639L10.5376 10.8648C9.04009 14.0705 5.70959 19.6927 5.70959 19.6927V14.0639Z" fill="#0B8311"/>
</svg>
