<svg width="24" height="24" viewBox="0 0 24 24" fill="none" xmlns="http://www.w3.org/2000/svg">
<rect width="24" height="24" fill="white" />
<path
		d="M7.40773 8.04708C7.64309 5.34077 9.6591 3 12 3C14.3409 3 16.3569 5.34077 16.5923 8.04708C16.836 10.8493 17.7708 14.1779 20.442 16.7352C20.4435 16.7401 20.4454 16.7474 20.4472 16.7576C20.4554 16.8041 20.4532 16.8733 20.4316 16.9446C20.4247 16.9671 20.4173 16.9854 20.4104 17H3.58962C3.58267 16.9854 3.57526 16.9671 3.56843 16.9446C3.54676 16.8733 3.54465 16.8041 3.55281 16.7576C3.5546 16.7474 3.55649 16.7401 3.55801 16.7353C6.22921 14.1779 7.16403 10.8493 7.40773 8.04708Z"
		stroke="#03061D"
		stroke-width="2"
	/>
<mask id="path-2-outside-1" fill="black">
<rect fill="white" x="8" y="16" width="8" height="6" />
<path
			d="M10 18C10 18.5304 10.2107 19.0391 10.5858 19.4142C10.9609 19.7893 11.4696 20 12 20C12.5304 20 13.0391 19.7893 13.4142 19.4142C13.7893 19.0391 14 18.5304 14 18L12 18L10 18Z"
		/>
</mask>
<path
		d="M10 18C10 18.5304 10.2107 19.0391 10.5858 19.4142C10.9609 19.7893 11.4696 20 12 20C12.5304 20 13.0391 19.7893 13.4142 19.4142C13.7893 19.0391 14 18.5304 14 18L12 18L10 18Z"
		stroke="#03061D"
		stroke-width="4"
		mask="url(#path-2-outside-1)"
	/>
</svg>
