<svg width="22" height="22" viewBox="0 0 22 22" fill="none" xmlns="http://www.w3.org/2000/svg">
<path
		fill-rule="evenodd"
		clip-rule="evenodd"
		d="M15.334 1.75012H6.665C3.644 1.75012 1.75 3.88912 1.75 6.91612V15.0841C1.75 18.1111 3.635 20.2501 6.665 20.2501H15.333C18.364 20.2501 20.25 18.1111 20.25 15.0841V6.91612C20.25 3.88912 18.364 1.75012 15.334 1.75012Z"
		stroke="#03061D"
		stroke-width="2"
		stroke-linecap="round"
		stroke-linejoin="round"
	/>
<path
		fill-rule="evenodd"
		clip-rule="evenodd"
		d="M9.68911 11.0001C9.68911 12.0231 8.86011 12.8521 7.83711 12.8521C6.81411 12.8521 5.98511 12.0231 5.98511 11.0001C5.98511 9.97713 6.81411 9.14813 7.83711 9.14813H7.84011C8.86111 9.14913 9.68911 9.97813 9.68911 11.0001Z"
		stroke="#03061D"
		stroke-width="2"
		stroke-linecap="round"
		stroke-linejoin="round"
	/>
<path
		d="M9.69189 11.0001H16.0099V12.8521"
		stroke="#03061D"
		stroke-width="2"
		stroke-linecap="round"
		stroke-linejoin="round"
	/>
<path
		d="M13.1816 12.8522V11.0002"
		stroke="#03061D"
		stroke-width="2"
		stroke-linecap="round"
		stroke-linejoin="round"
	/>
</svg>
