<svg width="35" height="35" viewBox="0 0 35 35" fill="none" xmlns="http://www.w3.org/2000/svg">
<path
		d="M14.7255 27.9158L15.0516 28.5679L14.7255 27.9158L13.125 28.716L11.5245 27.9158L11.1984 28.5679L11.5245 27.9158C11.155 27.731 10.72 27.731 10.3505 27.9158L9.47917 28.3514V8.38542C9.47917 7.17729 10.4585 6.19792 11.6667 6.19792H23.3333C24.5415 6.19792 25.5208 7.17729 25.5208 8.38542V28.3514L24.6495 27.9158C24.28 27.731 23.845 27.731 23.4755 27.9158L22.462 28.4225C22.0925 28.6073 21.6575 28.6073 21.288 28.4225L20.2745 27.9158C19.905 27.731 19.47 27.731 19.1005 27.9158L18.087 28.4225C17.7175 28.6073 17.2825 28.6073 16.913 28.4225L15.8995 27.9158C15.53 27.731 15.095 27.731 14.7255 27.9158Z"
		stroke="#252525"
		stroke-width="1.45833"
	/>
<rect
		x="13.4896"
		y="10.5729"
		width="8.02083"
		height="0.729167"
		rx="0.364583"
		stroke="#252525"
		stroke-width="0.729167"
	/>
<rect
		x="13.4896"
		y="13.4896"
		width="8.02083"
		height="0.729167"
		rx="0.364583"
		stroke="#252525"
		stroke-width="0.729167"
	/>
<rect
		x="13.4896"
		y="16.4063"
		width="3.64583"
		height="0.729167"
		rx="0.364583"
		stroke="#252525"
		stroke-width="0.729167"
	/>
</svg>
