<svg width="72" height="72" viewBox="0 0 72 72" fill="none" xmlns="http://www.w3.org/2000/svg">
<path
		fill-rule="evenodd"
		clip-rule="evenodd"
		d="M35.9999 9.42856C29.6092 9.42856 24.4285 14.6093 24.4285 21C24.4285 27.3907 29.6092 32.5714 35.9999 32.5714C42.3906 32.5714 47.5713 27.3907 47.5713 21C47.5713 14.6093 42.3906 9.42856 35.9999 9.42856ZM33.1735 36.4286C24.3964 36.4286 16.2 40.9403 11.3314 48.4516L9.95421 50.5764C7.46204 54.4213 10.1418 59.5714 14.6347 59.5714H57.3653C61.8582 59.5714 64.538 54.4213 62.0458 50.5764L60.6686 48.4516C55.8 40.9403 47.6036 36.4286 38.8265 36.4286H33.1735Z"
		fill="#252525"
	/>
</svg>
