<svg width="36" height="36" viewBox="0 0 36 36" fill="none" xmlns="http://www.w3.org/2000/svg">
<rect x="0.1" y="0.1" width="35.8" height="35.8" rx="6.56667" fill="#F8F8F8" />
<rect
		x="14.3333"
		y="15"
		width="7.33333"
		height="7.33333"
		rx="3.66667"
		stroke="#344CD3"
		stroke-width="0.666667"
	/>
<path
		fill-rule="evenodd"
		clip-rule="evenodd"
		d="M25.4318 12.6667H10.2569C10.172 12.6667 10.088 12.6829 10.0093 12.7143L7.75249 13.6171C7.49938 13.7183 7.33341 13.9634 7.33341 14.236V24.6667C7.33341 25.0349 7.63189 25.3333 8.00008 25.3333H28.0001C28.3683 25.3333 28.6667 25.0349 28.6667 24.6667V14.2672C28.6667 13.9869 28.4914 13.7365 28.2279 13.6407L25.6597 12.7068C25.5867 12.6803 25.5095 12.6667 25.4318 12.6667ZM10.2569 12C10.0872 12 9.91916 12.0324 9.76167 12.0954L7.50489 12.9981C6.99868 13.2006 6.66675 13.6908 6.66675 14.236V24.6667C6.66675 25.403 7.2637 26 8.00008 26H28.0001C28.7365 26 29.3334 25.403 29.3334 24.6667V14.2672C29.3334 13.7066 28.9827 13.2058 28.4557 13.0142L25.8875 12.0803C25.7415 12.0272 25.5872 12 25.4318 12H10.2569Z"
		fill="#344CD3"
	/>
<path
		d="M13.0975 11.7643L12.5285 12.3333H13.3333H22.6666H23.4713L22.9023 11.7643L21.0975 9.95956C20.91 9.77202 20.6557 9.66667 20.3904 9.66667H15.6094C15.3442 9.66667 15.0898 9.77202 14.9023 9.95956L15.138 10.1953L14.9023 9.95956L13.0975 11.7643Z"
		stroke="#344CD3"
		stroke-width="0.666667"
	/>
<rect x="0.1" y="0.1" width="35.8" height="35.8" rx="6.56667" stroke="#F2F2F2" stroke-width="0.2" />
</svg>
