<?xml version="1.0" encoding="UTF-8" ?>
<svg
	xmlns="http://www.w3.org/2000/svg"
	xmlns:xlink="http://www.w3.org/1999/xlink"
	width="18pt"
	height="18pt"
	viewBox="0 0 18 18"
	version="1.1"
>
<g id="surface1">
<path
			style="fill: #252525"
			d="M 16 0 L 2 0 C 0.898438 0 0 0.898438 0 2 L 0 16 C 0 17.101562 0.898438 18 2 18 L 16 18 C 17.101562 18 18 17.101562 18 16 L 18 2 C 18 0.898438 17.101562 0 16 0 Z M 6 14.003906 L 3.996094 14.003906 L 3.996094 7 L 6 7 Z M 10 14.003906 L 8 14.003906 L 8 3.996094 L 10 3.996094 Z M 14.003906 14.003906 L 12 14.003906 L 12 10 L 14.003906 10 Z M 14.003906 14.003906 "
		/>
</g>
</svg>
