<svg width="36" height="36" viewBox="0 0 36 36" fill="none" xmlns="http://www.w3.org/2000/svg">
<path
		d="M23.5741 24.3354H12.7441"
		stroke="#566AEC"
		stroke-width="2"
		stroke-linecap="round"
		stroke-linejoin="round"
	/>
<path
		d="M15 18.0557H12.7441"
		stroke="#566AEC"
		stroke-width="2"
		stroke-linecap="round"
		stroke-linejoin="round"
	/>
<path
		d="M15 11.7905H12.7446"
		stroke="#566AEC"
		stroke-width="2"
		stroke-linecap="round"
		stroke-linejoin="round"
	/>
<path
		d="M19 4.13086C19 4.13086 12.3475 4.13086 12.3295 4.13086C8.18948 4.15636 5.62598 6.88036 5.62598 11.0354V24.8294C5.62598 29.0054 8.20898 31.7399 12.385 31.7399C12.385 31.7399 23.899 31.7354 23.9185 31.7354C28.0585 31.7099 30.6235 28.9844 30.6235 24.8294V19"
		stroke="#566AEC"
		stroke-width="2"
		stroke-linecap="round"
		stroke-linejoin="round"
	/>
<path
		fill-rule="evenodd"
		clip-rule="evenodd"
		d="M18.8764 11.8223L27.8602 2.83851C28.9794 1.7205 30.7935 1.7205 31.9127 2.83851L33.3758 4.30156C34.495 5.42078 34.495 7.23605 33.3758 8.35407L24.3487 17.3812C23.8594 17.8705 23.1958 18.1458 22.5033 18.1458H18L18.113 13.6015C18.1298 12.9331 18.4027 12.296 18.8764 11.8223Z"
		stroke="#566AEC"
		stroke-width="2"
		stroke-linecap="round"
		stroke-linejoin="round"
	/>
<path
		d="M26.4951 4.22656L31.9842 9.71567"
		stroke="#566AEC"
		stroke-width="2"
		stroke-linecap="round"
		stroke-linejoin="round"
	/>
</svg>
