<svg width="24" height="24" viewBox="0 0 24 24" fill="none" xmlns="http://www.w3.org/2000/svg">
<path
		d="M11 17.004C11 16.4542 11.448 16 12 16C12.552 16 13 16.4396 13 16.9894V17.004C13 17.5538 12.552 18 12 18C11.448 18 11 17.5538 11 17.004Z"
		fill="#03061D"
	/>
<path
		d="M4.79569 20.418H19.2777C20.4247 20.358 21.3067 19.381 21.2477 18.234C21.2347 18.002 21.1847 17.773 21.0967 17.559L13.8197 4.82298C13.2637 3.81798 11.9987 3.45398 10.9937 4.01098C10.6517 4.19898 10.3697 4.48098 10.1807 4.82298L2.90369 17.559C2.47169 18.623 2.98369 19.835 4.04669 20.268C4.26269 20.355 4.49069 20.405 4.72269 20.418"
		stroke="#03061D"
		stroke-width="2"
		stroke-linecap="round"
		stroke-linejoin="round"
	/>
<path
		d="M11.9899 13.3961V10.2961"
		stroke="#03061D"
		stroke-width="2"
		stroke-linecap="round"
		stroke-linejoin="round"
	/>
</svg>
