<svg width="24" height="24" viewBox="0 0 24 24" fill="none" xmlns="http://www.w3.org/2000/svg">
<g opacity="0.4">
<mask id="path-1-inside-1" fill="white">
<path
				fill-rule="evenodd"
				clip-rule="evenodd"
				d="M14.4045 14.4045C12.7106 16.0984 9.9643 16.0984 8.27041 14.4045C6.57653 12.7106 6.57653 9.9643 8.27041 8.27041C9.9643 6.57653 12.7106 6.57653 14.4045 8.27041C16.0984 9.9643 16.0984 12.7106 14.4045 14.4045ZM14.5648 16.7934C12.1335 18.2339 8.94645 17.909 6.8562 15.8187C4.38127 13.3438 4.38127 9.33113 6.8562 6.8562C9.33113 4.38127 13.3438 4.38127 15.8187 6.8562C18.1932 9.23071 18.2896 13.0207 16.1078 15.5101L18.3981 17.8004C18.7886 18.191 18.7886 18.8241 18.3981 19.2146C18.0076 19.6052 17.3744 19.6052 16.9839 19.2146L14.6025 16.8332C14.5895 16.8202 14.5769 16.8069 14.5648 16.7934Z"
			/>
</mask>
<path
			d="M8.27041 14.4045L9.68463 12.9903L8.27041 14.4045ZM8.27041 8.27041L9.68463 9.68463L8.27041 8.27041ZM14.4045 8.27041L15.8187 6.8562V6.8562L14.4045 8.27041ZM6.8562 15.8187L8.27041 14.4045L8.27041 14.4045L6.8562 15.8187ZM14.5648 16.7934L16.0533 15.4576L14.9572 14.2362L13.5453 15.0727L14.5648 16.7934ZM6.8562 6.8562L5.44199 5.44199L5.44199 5.44199L6.8562 6.8562ZM15.8187 6.8562L14.4045 8.27041L14.4045 8.27041L15.8187 6.8562ZM16.1078 15.5101L14.6037 14.1918L13.3694 15.6001L14.6935 16.9243L16.1078 15.5101ZM6.8562 15.8187C9.33113 18.2937 13.3438 18.2937 15.8187 15.8187L12.9903 12.9903C12.0775 13.9031 10.5975 13.9031 9.68463 12.9903L6.8562 15.8187ZM6.8562 6.8562C4.38127 9.33113 4.38127 13.3438 6.8562 15.8187L9.68463 12.9903C8.77179 12.0775 8.77179 10.5975 9.68463 9.68463L6.8562 6.8562ZM15.8187 6.8562C13.3438 4.38127 9.33113 4.38127 6.8562 6.8562L9.68463 9.68463C10.5975 8.77179 12.0775 8.77179 12.9903 9.68463L15.8187 6.8562ZM15.8187 15.8187C18.2937 13.3438 18.2937 9.33113 15.8187 6.8562L12.9903 9.68463C13.9031 10.5975 13.9031 12.0775 12.9903 12.9903L15.8187 15.8187ZM5.44199 17.2329C8.19381 19.9848 12.3861 20.4089 15.5842 18.5141L13.5453 15.0727C11.881 16.0588 9.69908 15.8332 8.27041 14.4045L5.44199 17.2329ZM5.44199 5.44199C2.186 8.69797 2.186 13.977 5.44199 17.2329L8.27041 14.4045C6.57653 12.7106 6.57653 9.9643 8.27041 8.27041L5.44199 5.44199ZM17.2329 5.44199C13.977 2.186 8.69797 2.186 5.44199 5.44199L8.27041 8.27041C9.9643 6.57653 12.7106 6.57653 14.4045 8.27041L17.2329 5.44199ZM17.6118 16.8283C20.4835 13.5519 20.3574 8.56642 17.2329 5.44199L14.4045 8.27041C16.0291 9.89501 16.0957 12.4895 14.6037 14.1918L17.6118 16.8283ZM19.8123 16.3862L17.522 14.0959L14.6935 16.9243L16.9839 19.2146L19.8123 16.3862ZM19.8123 20.6289C20.9839 19.4573 20.9839 17.5578 19.8123 16.3862L16.9839 19.2146C16.5934 18.8241 16.5934 18.191 16.9839 17.8004L19.8123 20.6289ZM15.5697 20.6289C16.7413 21.8004 18.6408 21.8004 19.8123 20.6289L16.9839 17.8004C17.3744 17.4099 18.0076 17.4099 18.3981 17.8004L15.5697 20.6289ZM13.1883 18.2475L15.5697 20.6289L18.3981 17.8004L16.0167 15.419L13.1883 18.2475ZM13.0762 18.1292C13.1122 18.1693 13.1496 18.2087 13.1883 18.2475L16.0167 15.419C16.0294 15.4317 16.0416 15.4446 16.0533 15.4576L13.0762 18.1292Z"
			fill="#252525"
			mask="url(#path-1-inside-1)"
		/>
</g>
</svg>
