<svg width="35" height="35" viewBox="0 0 35 35" fill="none" xmlns="http://www.w3.org/2000/svg">
<path
		d="M22.0452 9.64669L22.4105 9.01563L22.0452 9.64669C22.7935 10.0799 23.7673 10.1736 24.5923 9.69732C25.024 9.44809 25.576 9.596 25.8252 10.0277L28.0048 13.8028C28.2544 14.2351 28.1063 14.7879 27.674 15.0375C26.849 15.5138 26.4438 16.4066 26.4438 17.2692C26.4438 18.1317 26.8491 19.0245 27.674 19.5008C28.1063 19.7504 28.2544 20.3032 28.0048 20.7354L25.8252 24.5106C25.576 24.9423 25.024 25.0902 24.5923 24.841C23.7673 24.3647 22.7935 24.4585 22.0452 24.8916C21.3011 25.3223 20.7259 26.1194 20.7259 27.0736C20.7259 27.5719 20.3219 27.9758 19.8236 27.9758H15.4625C14.9642 27.9758 14.5603 27.5719 14.5603 27.0736C14.5603 26.1194 13.985 25.3223 13.241 24.8916C12.4927 24.4585 11.5188 24.3647 10.6939 24.841C10.2622 25.0902 9.71017 24.9423 9.46094 24.5106L7.28135 20.7355C7.03176 20.3032 7.17988 19.7504 7.61217 19.5008C8.43712 19.0245 8.84238 18.1317 8.84238 17.2692C8.84238 16.4066 8.43713 15.5138 7.61217 15.0375C7.17988 14.7879 7.03176 14.2351 7.28135 13.8028L9.46093 10.0277C9.71017 9.59599 10.2622 9.44808 10.6939 9.69732C11.5188 10.1736 12.4927 10.0799 13.241 9.64669C13.9851 9.21598 14.5603 8.41885 14.5603 7.46472C14.5603 6.96643 14.9642 6.56248 15.4625 6.56248H19.8236C20.3219 6.56248 20.7259 6.96643 20.7259 7.46472C20.7259 8.41886 21.3011 9.21598 22.0452 9.64669Z"
		stroke="#252525"
		stroke-width="1.45833"
	/>
<rect
		x="14.5603"
		y="14.1863"
		width="6.16556"
		height="6.16556"
		rx="3.08278"
		stroke="#252525"
		stroke-width="1.45833"
	/>
</svg>
