<svg width="32" height="32" viewBox="0 0 32 32" fill="none" xmlns="http://www.w3.org/2000/svg">
<path
		d="M22.9271 10.2768H22.1042V7.86607C22.1042 7.42222 21.7358 7.0625 21.2812 7.0625C20.8269 7.0625 20.4583 7.42222 20.4583 7.86607V10.2768H19.6354C19.1811 10.2768 18.8125 10.6365 18.8125 11.0804V14.2946C18.8125 14.7385 19.1811 15.0982 19.6354 15.0982H20.4583V17.5089C20.4583 17.9528 20.8269 18.3125 21.2812 18.3125C21.7358 18.3125 22.1042 17.9528 22.1042 17.5089V15.0982H22.9271C23.3816 15.0982 23.75 14.7385 23.75 14.2946V11.0804C23.75 10.6365 23.3816 10.2768 22.9271 10.2768ZM22.1042 13.4911H20.4583V11.8839H22.1042V13.4911Z"
		fill="black"
	/>
<path
		d="M15.4271 15.1573H14.6042V12.7425C14.6042 12.2978 14.2356 11.9375 13.7812 11.9375C13.3267 11.9375 12.9583 12.2978 12.9583 12.7425V15.1573H12.1354C11.6809 15.1573 11.3125 15.5177 11.3125 15.9623V26.695C11.3125 27.1397 11.6809 27.5 12.1354 27.5H15.4271C15.8814 27.5 16.25 27.1397 16.25 26.695V15.9623C16.25 15.5177 15.8814 15.1573 15.4271 15.1573ZM14.6042 25.8901H12.9583V16.7672H14.6042V25.8901Z"
		fill="black"
	/>
<path
		d="M7.86458 8.125H4.57292C4.11838 8.125 3.75 8.48472 3.75 8.92857V19.6429C3.75 20.0867 4.11838 20.4464 4.57292 20.4464H5.39583V26.0714C5.39583 26.5153 5.76422 26.875 6.21875 26.875C6.67328 26.875 7.04167 26.5153 7.04167 26.0714V20.4464H7.86458C8.31912 20.4464 8.6875 20.0867 8.6875 19.6429V8.92857C8.6875 8.48472 8.31912 8.125 7.86458 8.125ZM7.04167 18.8393H5.39583V9.73214H7.04167V18.8393Z"
		fill="black"
	/>
<path
		d="M30.4896 10.8125H27.1979C26.7434 10.8125 26.375 11.1724 26.375 11.6165V27.696C26.375 28.1401 26.7434 28.5 27.1979 28.5H30.4896C30.9441 28.5 31.3125 28.1401 31.3125 27.696V11.6165C31.3125 11.1724 30.9441 10.8125 30.4896 10.8125ZM29.6667 26.892H28.0208V12.4205H29.6667V26.892Z"
		fill="black"
	/>
<path
		d="M31.0625 30.125H1.875V0.9375C1.875 0.41975 1.45525 0 0.9375 0C0.41975 0 0 0.41975 0 0.9375V31.0625C0 31.5803 0.41975 32 0.9375 32H31.0625C31.5803 32 32 31.5803 32 31.0625C32 30.5447 31.5803 30.125 31.0625 30.125Z"
		fill="black"
	/>
</svg>
