<svg width="21" height="20" viewBox="0 0 21 20" fill="none" xmlns="http://www.w3.org/2000/svg">
<path
		d="M8.5485 8.58164V4.40508H2.88379V0.744141H18.7132V4.45664H13.0485V8.58164H8.5485Z"
		fill="#00A478"
	/>
<path
		fill-rule="evenodd"
		clip-rule="evenodd"
		d="M0.448486 9.04536C0.448486 7.65317 5.00143 6.5188 10.6661 6.5188C16.3308 6.5188 20.8838 7.65317 20.8838 9.04536C20.8838 10.4375 16.3308 11.5719 10.6661 11.5719C5.00143 11.5719 0.448486 10.4375 0.448486 9.04536ZM20.0368 9.04546C19.6662 8.52983 16.5956 6.9314 10.6662 6.9314C4.73675 6.9314 1.66616 8.47827 1.29557 9.04546C1.66616 9.56108 4.73675 10.3345 10.6662 10.3345C16.6485 10.3345 19.6662 9.56108 20.0368 9.04546Z"
		fill="#00A478"
	/>
<path
		d="M13.0481 9.87075V6.98325C12.307 6.93169 11.5128 6.88013 10.7187 6.88013C9.97754 6.88013 9.28931 6.88013 8.60107 6.93169V9.81919C9.23637 9.81919 9.97754 9.87075 10.7187 9.87075C11.5128 9.92231 12.307 9.92231 13.0481 9.87075Z"
		fill="#00A478"
	/>
<path
		d="M10.666 11.5724C9.92481 11.5724 9.23658 11.5724 8.54834 11.5208V19.2036H12.9954V11.4692C12.2542 11.5208 11.4601 11.5724 10.666 11.5724Z"
		fill="#00A478"
	/>
</svg>
