<svg width="28" height="28" viewBox="0 0 28 28" fill="none" xmlns="http://www.w3.org/2000/svg">
<mask id="path-1-inside-1" fill="white">
<path
			fill-rule="evenodd"
			clip-rule="evenodd"
			d="M16.8052 16.8053C14.829 18.7815 11.6249 18.7815 9.64873 16.8053C7.67254 14.8291 7.67254 11.625 9.64873 9.64883C11.6249 7.67263 14.829 7.67263 16.8052 9.64883C18.7814 11.625 18.7814 14.8291 16.8052 16.8053ZM16.9922 19.5923C14.1557 21.2729 10.4374 20.8938 7.99882 18.4552C5.1114 15.5678 5.1114 10.8863 7.99882 7.99891C10.8862 5.11149 15.5677 5.11149 18.4551 7.99891C21.2254 10.7692 21.3378 15.1908 18.7923 18.0951L21.4644 20.7671C21.92 21.2228 21.92 21.9614 21.4644 22.4171C21.0088 22.8727 20.2701 22.8727 19.8145 22.4171L17.0362 19.6388C17.021 19.6236 17.0063 19.6081 16.9922 19.5923Z"
		/>
</mask>
<path
		d="M9.64873 16.8053L7.99882 18.4552H7.99882L9.64873 16.8053ZM16.8052 16.8053L18.4551 18.4552V18.4552L16.8052 16.8053ZM9.64873 9.64883L11.2987 11.2987L9.64873 9.64883ZM16.8052 9.64883L18.4551 7.99891V7.99891L16.8052 9.64883ZM7.99882 18.4552L6.3489 20.1051H6.3489L7.99882 18.4552ZM16.9922 19.5923L18.7287 18.0338L17.45 16.6089L15.8028 17.5849L16.9922 19.5923ZM7.99882 7.99891L9.64873 9.64883V9.64883L7.99882 7.99891ZM18.4551 7.99891L20.105 6.34899V6.34899L18.4551 7.99891ZM18.7923 18.0951L17.0376 16.5571L15.5976 18.2001L17.1424 19.745L18.7923 18.0951ZM21.4644 22.4171L19.8145 20.7671L19.8145 20.7671L21.4644 22.4171ZM19.8145 22.4171L21.4644 20.7671L21.4644 20.7671L19.8145 22.4171ZM17.0362 19.6388L15.3863 21.2887L17.0362 19.6388ZM7.99882 18.4552C10.8862 21.3426 15.5677 21.3426 18.4551 18.4552L15.1553 15.1554C14.0903 16.2203 12.3636 16.2203 11.2986 15.1554L7.99882 18.4552ZM7.99882 7.99891C5.1114 10.8863 5.1114 15.5678 7.99882 18.4552L11.2987 15.1554C10.2337 14.0904 10.2337 12.3637 11.2987 11.2987L7.99882 7.99891ZM18.4551 7.99891C15.5677 5.11149 10.8862 5.11149 7.99882 7.99891L11.2987 11.2987C12.3636 10.2338 14.0903 10.2338 15.1553 11.2987L18.4551 7.99891ZM18.4551 18.4552C21.3425 15.5678 21.3425 10.8863 18.4551 7.99891L15.1553 11.2987C16.2202 12.3637 16.2202 14.0904 15.1553 15.1554L18.4551 18.4552ZM6.3489 20.1051C9.55938 23.3156 14.4504 23.8104 18.1816 21.5997L15.8028 17.5849C13.8611 18.7353 11.3155 18.4721 9.64873 16.8053L6.3489 20.1051ZM6.3489 6.34899C2.55026 10.1476 2.55026 16.3065 6.3489 20.1051L9.64873 16.8053C7.67254 14.8291 7.67254 11.625 9.64873 9.64883L6.3489 6.34899ZM20.105 6.34899C16.3064 2.55035 10.1475 2.55035 6.3489 6.34899L9.64873 9.64883C11.6249 7.67263 14.829 7.67263 16.8052 9.64883L20.105 6.34899ZM20.5471 19.633C23.8973 15.8105 23.7502 9.99415 20.105 6.34899L16.8052 9.64883C18.7005 11.5442 18.7782 14.5711 17.0376 16.5571L20.5471 19.633ZM23.1143 19.1172L20.4422 16.4452L17.1424 19.745L19.8145 22.4171L23.1143 19.1172ZM23.1143 24.067C24.4812 22.7001 24.4812 20.4841 23.1143 19.1172L19.8145 22.4171C19.3589 21.9614 19.3589 21.2228 19.8145 20.7671L23.1143 24.067ZM18.1646 24.067C19.5314 25.4338 21.7475 25.4338 23.1143 24.067L19.8145 20.7671C20.2701 20.3115 21.0088 20.3115 21.4644 20.7671L18.1646 24.067ZM15.3863 21.2887L18.1646 24.067L21.4644 20.7671L18.6861 17.9889L15.3863 21.2887ZM15.2556 21.1508C15.2975 21.1975 15.3411 21.2435 15.3863 21.2887L18.6861 17.9889C18.701 18.0037 18.7152 18.0187 18.7287 18.0338L15.2556 21.1508Z"
		fill="#252525"
		mask="url(#path-1-inside-1)"
	/>
</svg>
