<svg width="12" height="11" viewBox="0 0 12 11" fill="none" xmlns="http://www.w3.org/2000/svg">
<path
		d="M4.67202 4.77388V2.51157H1.60364V0.528564H10.1779V2.5395H7.10952V4.77388H4.67202Z"
		fill="#566AEC"
	/>
<path
		fill-rule="evenodd"
		clip-rule="evenodd"
		d="M0.284546 5.02529C0.284546 4.27119 2.75072 3.65674 5.8191 3.65674C8.88749 3.65674 11.3537 4.27119 11.3537 5.02529C11.3537 5.77939 8.88749 6.39385 5.8191 6.39385C2.75072 6.39385 0.284546 5.77939 0.284546 5.02529ZM10.8948 5.02529C10.6941 4.746 9.03087 3.88018 5.8191 3.88018C2.60734 3.88018 0.944105 4.71807 0.743369 5.02529C0.944105 5.30459 2.60734 5.72354 5.8191 5.72354C9.05955 5.72354 10.6941 5.30459 10.8948 5.02529Z"
		fill="#566AEC"
	/>
<path
		d="M7.10951 5.47222V3.90815C6.70804 3.88022 6.27789 3.85229 5.84774 3.85229C5.44627 3.85229 5.07348 3.85229 4.70068 3.88022V5.44429C5.0448 5.44429 5.44627 5.47222 5.84774 5.47222C6.27789 5.50015 6.70804 5.50015 7.10951 5.47222Z"
		fill="#566AEC"
	/>
<path
		d="M5.81906 6.39399C5.41759 6.39399 5.04479 6.39399 4.672 6.36606V10.5276H7.08082V6.33813C6.67935 6.36606 6.2492 6.39399 5.81906 6.39399Z"
		fill="#566AEC"
	/>
</svg>
