<svg width="78" height="23" viewBox="0 0 78 23" fill="none" xmlns="http://www.w3.org/2000/svg">
<path
		d="M36.2834 18.3764C35.3331 18.3764 34.4507 18.2338 33.6362 17.9487C32.8352 17.6501 32.2108 17.2768 31.7628 16.8288C31.5591 16.6116 31.4709 16.3672 31.4981 16.0957C31.5388 15.8106 31.6745 15.5798 31.9053 15.4033C32.1768 15.1861 32.4416 15.0979 32.6995 15.1386C32.971 15.1658 33.2018 15.2812 33.3918 15.4848C33.6226 15.7427 33.9892 15.9871 34.4915 16.2179C35.0073 16.4351 35.5775 16.5437 36.202 16.5437C36.9894 16.5437 37.5867 16.4147 37.9939 16.1568C38.4148 15.8988 38.632 15.5662 38.6456 15.159C38.6591 14.7517 38.4623 14.3987 38.055 14.1001C37.6613 13.8014 36.935 13.5571 35.8762 13.367C34.505 13.0955 33.5072 12.6882 32.8828 12.1452C32.2719 11.6022 31.9664 10.937 31.9664 10.1496C31.9664 9.45726 32.17 8.88709 32.5773 8.4391C32.9846 7.97753 33.5072 7.63814 34.1453 7.42093C34.7833 7.19015 35.4485 7.07476 36.1409 7.07476C37.0369 7.07476 37.831 7.2173 38.5234 7.50239C39.2157 7.78747 39.7655 8.18116 40.1728 8.68346C40.3629 8.90066 40.4511 9.13145 40.4375 9.37581C40.424 9.60659 40.3086 9.80344 40.0914 9.96634C39.8741 10.1157 39.6162 10.1632 39.3176 10.1089C39.0189 10.0546 38.7677 9.9324 38.5641 9.74235C38.2247 9.41653 37.8582 9.19254 37.4645 9.07036C37.0708 8.94818 36.616 8.88709 36.1002 8.88709C35.5028 8.88709 34.9938 8.9889 34.5729 9.19254C34.1656 9.39617 33.962 9.69483 33.962 10.0885C33.962 10.3329 34.0231 10.5569 34.1453 10.7605C34.281 10.9506 34.539 11.127 34.9191 11.29C35.2992 11.4393 35.8558 11.5886 36.5889 11.7379C38.1229 12.0366 39.1818 12.4642 39.7655 13.0208C40.3629 13.5639 40.6615 14.2358 40.6615 15.0368C40.6615 15.6613 40.4918 16.2247 40.1524 16.7269C39.8266 17.2292 39.3379 17.6297 38.6863 17.9284C38.0482 18.227 37.2473 18.3764 36.2834 18.3764ZM47.9306 18.3764C46.9396 18.3764 46.0504 18.132 45.263 17.6433C44.4756 17.141 43.8511 16.469 43.3896 15.6273C42.9416 14.7721 42.7176 13.8082 42.7176 12.7357C42.7176 11.6633 42.9619 10.6994 43.4507 9.84416C43.953 8.9889 44.6249 8.31692 45.4666 7.8282C46.3219 7.3259 47.279 7.07476 48.3378 7.07476C49.3967 7.07476 50.347 7.3259 51.1887 7.8282C52.0304 8.31692 52.6956 8.9889 53.1843 9.84416C53.6866 10.6994 53.9377 11.6633 53.9377 12.7357V17.2768C53.9377 17.5754 53.8359 17.8266 53.6323 18.0302C53.4422 18.2203 53.1979 18.3153 52.8992 18.3153C52.6006 18.3153 52.3494 18.2203 52.1458 18.0302C51.9557 17.8266 51.8607 17.5754 51.8607 17.2768V16.5233C51.3856 17.0935 50.8086 17.5483 50.1298 17.8877C49.4646 18.2135 48.7315 18.3764 47.9306 18.3764ZM48.3378 16.5437C49.0302 16.5437 49.6479 16.3808 50.1909 16.055C50.7339 15.7156 51.1616 15.2608 51.4738 14.6906C51.786 14.1069 51.9421 13.4552 51.9421 12.7357C51.9421 12.0027 51.786 11.351 51.4738 10.7809C51.1616 10.1971 50.7339 9.74235 50.1909 9.41653C49.6479 9.07715 49.0302 8.90745 48.3378 8.90745C47.6591 8.90745 47.0414 9.07715 46.4848 9.41653C45.9418 9.74235 45.5074 10.1971 45.1815 10.7809C44.8693 11.351 44.7132 12.0027 44.7132 12.7357C44.7132 13.4552 44.8693 14.1069 45.1815 14.6906C45.5074 15.2608 45.9418 15.7156 46.4848 16.055C47.0414 16.3808 47.6591 16.5437 48.3378 16.5437ZM60.1797 18.2746C59.7589 18.2746 59.4331 18.0506 59.2023 17.6026L54.8853 8.50019C54.7767 8.2694 54.7631 8.04541 54.8445 7.8282C54.9396 7.59741 55.1161 7.42093 55.374 7.29875C55.6048 7.17657 55.8356 7.15621 56.0663 7.23766C56.3107 7.31912 56.494 7.47523 56.6162 7.70602L60.1594 15.3422L63.6618 7.70602C63.784 7.47523 63.9673 7.31912 64.2117 7.23766C64.4696 7.15621 64.7275 7.17657 64.9855 7.29875C65.2298 7.40736 65.3927 7.57705 65.4742 7.80783C65.5556 8.03862 65.5421 8.2694 65.4335 8.50019L61.1164 17.6026C60.9128 18.0506 60.6006 18.2746 60.1797 18.2746ZM72.4042 18.3764C71.2774 18.3764 70.2729 18.1388 69.3904 17.6637C68.5216 17.1749 67.8361 16.5097 67.3338 15.6681C66.845 14.8128 66.6007 13.8354 66.6007 12.7357C66.6007 11.6226 66.8315 10.6451 67.293 9.80344C67.7682 8.94818 68.4198 8.28298 69.2479 7.80783C70.076 7.31912 71.0263 7.07476 72.0988 7.07476C73.1577 7.07476 74.0672 7.31233 74.8274 7.78747C75.5877 8.24904 76.1646 8.89388 76.5583 9.72198C76.9656 10.5365 77.1692 11.48 77.1692 12.5525C77.1692 12.8104 77.081 13.0276 76.9045 13.2041C76.728 13.367 76.504 13.4485 76.2325 13.4485H68.4945C68.6438 14.3852 69.0714 15.1522 69.7774 15.7495C70.4969 16.3333 71.3725 16.6251 72.4042 16.6251C72.8251 16.6251 73.2527 16.5505 73.6871 16.4011C74.1351 16.2382 74.4948 16.055 74.7664 15.8513C74.97 15.702 75.1872 15.6273 75.418 15.6273C75.6623 15.6138 75.8728 15.6816 76.0492 15.831C76.28 16.0346 76.4022 16.2586 76.4158 16.503C76.4294 16.7473 76.3208 16.9577 76.09 17.1342C75.6284 17.5008 75.0514 17.7994 74.3591 18.0302C73.6803 18.261 73.0287 18.3764 72.4042 18.3764ZM72.0988 8.826C71.0942 8.826 70.2864 9.1043 69.6755 9.66089C69.0646 10.2175 68.6777 10.937 68.5148 11.8194H75.2958C75.1736 10.9506 74.841 10.2379 74.298 9.68126C73.755 9.11108 73.0219 8.826 72.0988 8.826Z"
		fill="#0E0527"
	/>
<path
		d="M3.99087 18.2949C3.69221 18.2949 3.44106 18.1999 3.23743 18.0098C3.04737 17.8062 2.95234 17.5551 2.95234 17.2564V8.19474C2.95234 7.8825 3.04737 7.63135 3.23743 7.44129C3.44106 7.25124 3.69221 7.15621 3.99087 7.15621C4.30311 7.15621 4.55425 7.25124 4.74431 7.44129C4.93437 7.63135 5.0294 7.8825 5.0294 8.19474V17.2564C5.0294 17.5551 4.93437 17.8062 4.74431 18.0098C4.55425 18.1999 4.30311 18.2949 3.99087 18.2949ZM3.99087 5.34388C3.62433 5.34388 3.30531 5.21491 3.0338 4.95698C2.77586 4.68547 2.64689 4.36644 2.64689 3.9999C2.64689 3.63336 2.77586 3.32113 3.0338 3.06319C3.30531 2.79168 3.62433 2.65593 3.99087 2.65593C4.35741 2.65593 4.66965 2.79168 4.92758 3.06319C5.19909 3.32113 5.33485 3.63336 5.33485 3.9999C5.33485 4.36644 5.19909 4.68547 4.92758 4.95698C4.66965 5.21491 4.35741 5.34388 3.99087 5.34388Z"
		fill="#0E0527"
	/>
<path
		fill-rule="evenodd"
		clip-rule="evenodd"
		d="M7.53539 18.3204C6.94539 17.8863 6.81909 17.056 7.25327 16.466L14.0223 7.26787C14.2722 6.92821 14.6688 6.72766 15.0906 6.72766C15.5123 6.72766 15.9089 6.92821 16.1588 7.26787L21.8596 15.0144L27.5604 7.26787C27.9945 6.67788 28.8248 6.55157 29.4148 6.98575C30.0048 7.41994 30.1311 8.25019 29.6969 8.84019L22.9278 18.0383C22.6779 18.378 22.2813 18.5785 21.8596 18.5785C21.4378 18.5785 21.0412 18.378 20.7913 18.0383L15.0906 10.2918L9.38982 18.0383C8.95564 18.6283 8.12538 18.7546 7.53539 18.3204Z"
		fill="url(#paint0_linear)"
	/>
<defs>
<linearGradient
			id="paint0_linear"
			x1="29.9551"
			y1="12.6531"
			x2="6.99509"
			y2="12.6531"
			gradientUnits="userSpaceOnUse"
		>
<stop stop-color="#06C7DF" />
<stop offset="0.755839" stop-color="#DA1EFB" />
<stop offset="0.834455" stop-color="#DC1EDC" />
<stop offset="0.875988" stop-color="#DE1EC6" />
<stop offset="0.928645" stop-color="#DF1EB3" />
<stop offset="0.959795" stop-color="#E01E9F" />
<stop offset="1" stop-color="#E31F8B" />
</linearGradient>
</defs>
</svg>
