<svg width="36" height="36" viewBox="0 0 36 36" fill="none" xmlns="http://www.w3.org/2000/svg">
<rect x="0.1" y="0.1" width="35.8" height="35.8" rx="6.56667" fill="#F8F8F8" />
<path
		d="M16.3333 10.6667C16.3333 10.4826 16.4826 10.3333 16.6667 10.3333H19.3333C19.5174 10.3333 19.6667 10.4826 19.6667 10.6667V25.33C19.6667 25.5159 19.5159 25.6667 19.33 25.6667H16.67C16.4841 25.6667 16.3333 25.5159 16.3333 25.33V10.6667Z"
		stroke="#344CD3"
		stroke-width="0.666667"
	/>
<path
		d="M21.0001 12.6667C21.0001 12.4826 21.1493 12.3333 21.3334 12.3333H24.0001C24.1842 12.3333 24.3334 12.4826 24.3334 12.6667V25.33C24.3334 25.5159 24.1827 25.6667 23.9967 25.6667H21.3367C21.1508 25.6667 21.0001 25.5159 21.0001 25.33V12.6667Z"
		stroke="#344CD3"
		stroke-width="0.666667"
	/>
<path
		d="M11.6666 15.3334C11.6666 15.1493 11.8158 15 11.9999 15H14.6666C14.8507 15 14.9999 15.1493 14.9999 15.3334V25.33C14.9999 25.516 14.8492 25.6667 14.6633 25.6667H12.0033C11.8173 25.6667 11.6666 25.516 11.6666 25.33V15.3334Z"
		stroke="#344CD3"
		stroke-width="0.666667"
	/>
<rect x="0.1" y="0.1" width="35.8" height="35.8" rx="6.56667" stroke="#F2F2F2" stroke-width="0.2" />
</svg>
